<svg class="write-page" color-interpolation="linearRGB" width="1240px" height="1755px" xmlns="http://www.w3.org/2000/svg" xmlns:xlink="http://www.w3.org/1999/xlink">
  <g class="write-content write-v3" xruling="0" yruling="45" marginLeft="150" papercolor="#FFFFFF" rulecolor="#4774737A">
    <g class="ruleline write-std-ruling write-scale-down" fill="none" stroke="#74737A" stroke-opacity="0.278" stroke-width="1" shape-rendering="crispEdges" vector-effect="non-scaling-stroke">
      <rect class="pagerect" fill="#FFFFFF" stroke="none" x="0" y="0" width="1240" height="1755" />
      <path class="yrule_1" d="M0 45 l1240 0" />
      <path d="M0 90 l1240 0" />
      <path d="M0 135 l1240 0" />
      <path d="M0 180 l1240 0" />
      <path d="M0 225 l1240 0" />
      <path d="M0 270 l1240 0" />
      <path d="M0 315 l1240 0" />
      <path d="M0 360 l1240 0" />
      <path d="M0 405 l1240 0" />
      <path d="M0 450 l1240 0" />
      <path d="M0 495 l1240 0" />
      <path d="M0 540 l1240 0" />
      <path d="M0 585 l1240 0" />
      <path d="M0 630 l1240 0" />
      <path d="M0 675 l1240 0" />
      <path d="M0 720 l1240 0" />
      <path d="M0 765 l1240 0" />
      <path d="M0 810 l1240 0" />
      <path d="M0 855 l1240 0" />
      <path d="M0 900 l1240 0" />
      <path d="M0 945 l1240 0" />
      <path d="M0 990 l1240 0" />
      <path d="M0 1035 l1240 0" />
      <path d="M0 1080 l1240 0" />
      <path d="M0 1125 l1240 0" />
      <path d="M0 1170 l1240 0" />
      <path d="M0 1215 l1240 0" />
      <path d="M0 1260 l1240 0" />
      <path d="M0 1305 l1240 0" />
      <path d="M0 1350 l1240 0" />
      <path d="M0 1395 l1240 0" />
      <path d="M0 1440 l1240 0" />
      <path d="M0 1485 l1240 0" />
      <path d="M0 1530 l1240 0" />
      <path d="M0 1575 l1240 0" />
      <path d="M0 1620 l1240 0" />
      <path d="M0 1665 l1240 0" />
      <path d="M0 1710 l1240 0" />
      <path class="leftmargin" stroke="#FF0000" d="M150 0 l0 1755" />
    </g>
    <path class="write-round-pen" fill="#FF5768" stroke-width="5" __comx="190.895" __comy="63.676" __timestamp="0x189388a127f" d="M196.331 60.216 c0.382 0.74 1.291 1.029 2.031 0.647 0.74 -0.382 1.029 -1.291 0.647 -2.031 l-0.907 -1.883 c-0.397 -0.768 -1.341 -1.069 -2.109 -0.672 -0.768 0.397 -1.069 1.341 -0.672 2.109 l1.011 1.83 m-0.068 -1.048 c0.828 0.248 1.701 -0.223 1.948 -1.051 0.248 -0.828 -0.223 -1.701 -1.051 -1.948 l-0.659 -0.21 c-0.835 -0.25 -1.714 0.225 -1.963 1.059 -0.25 0.835 0.225 1.714 1.059 1.963 l0.666 0.187 m-0.434 -0.136 c0.863 0.121 1.66 -0.48 1.781 -1.343 0.121 -0.863 -0.48 -1.66 -1.343 -1.781 l-0.955 -0.144 c-0.868 -0.122 -1.67 0.483 -1.792 1.351 -0.122 0.868 0.483 1.67 1.351 1.792 l0.958 0.125 m-0.737 -0.109 c0.876 0 1.587 -0.71 1.587 -1.587 0 -0.876 -0.71 -1.587 -1.587 -1.587 l-1.178 -0.007 c-0.88 0 -1.594 0.714 -1.594 1.594 0 0.88 0.714 1.594 1.594 1.594 l1.178 -0.007 m-1.178 0.007 c0.88 0 1.594 -0.714 1.594 -1.594 0 -0.88 -0.714 -1.594 -1.594 -1.594 l-1.474 -0.004 c-0.882 0 -1.597 0.715 -1.597 1.597 0 0.882 0.715 1.597 1.597 1.597 l1.474 -0.004 m-1.202 -0.02 c0.869 -0.15 1.453 -0.976 1.303 -1.846 -0.15 -0.869 -0.976 -1.453 -1.846 -1.303 l-1.547 0.265 c-0.87 0.15 -1.454 0.977 -1.304 1.847 0.15 0.87 0.977 1.454 1.847 1.304 l1.546 -0.268 m-1.011 0.073 c0.763 -0.445 1.02 -1.425 0.574 -2.187 -0.445 -0.763 -1.425 -1.02 -2.187 -0.574 l-1.474 0.86 c-0.763 0.446 -1.02 1.426 -0.575 2.189 0.446 0.763 1.426 1.02 2.189 0.575 l1.473 -0.862 m-1.276 0.726 c0.688 -0.555 0.796 -1.562 0.241 -2.25 -0.555 -0.688 -1.562 -0.796 -2.25 -0.241 l-1.4 1.126 c-0.689 0.556 -0.797 1.564 -0.242 2.253 0.556 0.689 1.564 0.797 2.253 0.242 l1.397 -1.129 m-1.181 0.918 c0.572 -0.675 0.489 -1.686 -0.186 -2.259 -0.675 -0.572 -1.686 -0.489 -2.259 0.186 l-1.182 1.39 c-0.573 0.676 -0.49 1.69 0.186 2.263 0.676 0.573 1.69 0.49 2.263 -0.186 l1.178 -1.394 m-1.054 1.227 c0.482 -0.745 0.268 -1.739 -0.476 -2.22 -0.745 -0.482 -1.739 -0.268 -2.22 0.476 l-1.03 1.592 c-0.482 0.745 -0.268 1.739 0.476 2.22 0.745 0.482 1.739 0.268 2.22 -0.476 l1.029 -1.592 m-0.879 1.297 c0.319 -0.828 -0.094 -1.757 -0.922 -2.075 -0.828 -0.319 -1.757 0.094 -2.075 0.922 l-0.663 1.722 c-0.319 0.828 0.094 1.757 0.922 2.076 0.828 0.319 1.757 -0.094 2.076 -0.922 l0.662 -1.722 m-0.588 1.469 c0.179 -0.869 -0.38 -1.718 -1.249 -1.898 -0.869 -0.179 -1.718 0.38 -1.898 1.249 l-0.369 1.79 c-0.179 0.869 0.38 1.718 1.249 1.898 0.869 0.179 1.718 -0.38 1.898 -1.249 l0.369 -1.79 m-0.336 1.466 c0 -0.887 -0.719 -1.606 -1.606 -1.606 -0.887 0 -1.606 0.719 -1.606 1.606 l-0.001 1.658 c0 0.888 0.72 1.607 1.607 1.607 0.888 0 1.607 -0.72 1.607 -1.607 l-0.001 -1.658 m0.001 1.658 c0 -0.888 -0.72 -1.607 -1.607 -1.607 -0.888 0 -1.607 0.72 -1.607 1.607 l-0.001 1.524 c0 0.888 0.72 1.608 1.608 1.608 0.888 0 1.608 -0.72 1.608 -1.608 l-0.001 -1.524 m-0.186 0.772 c-0.415 -0.785 -1.388 -1.085 -2.173 -0.67 -0.785 0.415 -1.085 1.388 -0.67 2.173 l0.736 1.392 c0.415 0.785 1.388 1.085 2.173 0.67 0.785 -0.415 1.085 -1.388 0.67 -2.173 l-0.736 -1.392 m0.422 0.978 c-0.644 -0.612 -1.661 -0.586 -2.273 0.058 -0.612 0.644 -0.586 1.661 0.058 2.273 l1.326 1.26 c0.644 0.612 1.661 0.586 2.273 -0.058 0.612 -0.644 0.586 -1.661 -0.058 -2.273 l-1.326 -1.26 m1.2 1.152 c-0.703 -0.543 -1.713 -0.412 -2.255 0.291 -0.543 0.703 -0.412 1.713 0.291 2.255 l1.547 1.194 c0.703 0.543 1.713 0.412 2.255 -0.291 0.543 -0.703 0.412 -1.713 -0.291 -2.255 l-1.547 -1.194 m1.438 1.117 c-0.745 -0.483 -1.741 -0.27 -2.224 0.475 -0.483 0.745 -0.27 1.741 0.475 2.224 l1.843 1.193 c0.745 0.483 1.741 0.27 2.223 -0.475 0.483 -0.745 0.27 -1.741 -0.475 -2.223 l-1.843 -1.194 m1.772 1.15 c-0.769 -0.444 -1.752 -0.18 -2.196 0.589 -0.444 0.769 -0.18 1.752 0.589 2.196 l1.841 1.061 c0.769 0.443 1.751 0.18 2.195 -0.589 0.443 -0.769 0.18 -1.751 -0.589 -2.195 l-1.84 -1.062 m1.863 1.076 c-0.761 -0.456 -1.748 -0.209 -2.204 0.552 -0.456 0.761 -0.209 1.748 0.552 2.204 l1.767 1.059 c0.761 0.456 1.748 0.209 2.204 -0.552 0.456 -0.761 0.209 -1.748 -0.552 -2.204 l-1.767 -1.059 m1.811 1.086 c-0.746 -0.48 -1.741 -0.265 -2.221 0.482 -0.48 0.746 -0.265 1.741 0.482 2.221 l1.547 0.995 c0.746 0.48 1.741 0.265 2.221 -0.482 0.48 -0.746 0.265 -1.741 -0.482 -2.221 l-1.547 -0.995 m1.67 1.083 c-0.698 -0.548 -1.708 -0.427 -2.256 0.271 -0.548 0.698 -0.427 1.708 0.271 2.256 l1.179 0.928 c0.698 0.549 1.709 0.427 2.258 -0.271 0.549 -0.698 0.427 -1.709 -0.271 -2.258 l-1.181 -0.926 m1.346 1.076 c-0.615 -0.64 -1.633 -0.661 -2.274 -0.045 -0.64 0.615 -0.661 1.633 -0.045 2.274 l0.957 0.995 c0.615 0.64 1.633 0.661 2.274 0.045 0.64 -0.615 0.661 -1.633 0.045 -2.274 l-0.957 -0.995 m1.18 1.288 c-0.454 -0.764 -1.44 -1.015 -2.204 -0.561 -0.764 0.454 -1.015 1.44 -0.561 2.204 l0.589 0.993 c0.454 0.764 1.441 1.015 2.205 0.562 0.764 -0.454 1.015 -1.441 0.562 -2.205 l-0.591 -0.993 m0.758 1.385 c-0.237 -0.856 -1.123 -1.358 -1.98 -1.121 -0.856 0.237 -1.358 1.123 -1.121 1.98 l0.292 1.062 c0.237 0.857 1.125 1.36 1.982 1.122 0.857 -0.237 1.36 -1.125 1.122 -1.982 l-0.295 -1.061 m0.35 1.377 c-0.063 -0.887 -0.833 -1.556 -1.72 -1.493 -0.887 0.063 -1.556 0.833 -1.493 1.72 l0.073 1.062 c0.063 0.888 0.834 1.557 1.722 1.494 0.888 -0.063 1.557 -0.834 1.494 -1.722 l-0.077 -1.061 m0.081 1.175 c0 -0.89 -0.722 -1.612 -1.612 -1.612 -0.89 0 -1.612 0.722 -1.612 1.612 l-0.003 1.125 c0 0.892 0.723 1.615 1.615 1.615 0.892 0 1.615 -0.723 1.615 -1.615 l-0.003 -1.125 m0.003 1.125 c0 -0.892 -0.723 -1.615 -1.615 -1.615 -0.892 0 -1.615 0.723 -1.615 1.615 l-0.01 1.061 c0 0.897 0.728 1.625 1.625 1.625 0.897 0 1.625 -0.728 1.625 -1.625 l-0.01 -1.061 m-0.237 1.922 c0.475 -0.761 0.244 -1.764 -0.518 -2.239 -0.761 -0.475 -1.764 -0.244 -2.239 0.518 l-0.671 1.056 c-0.478 0.766 -0.245 1.774 0.521 2.252 0.766 0.478 1.774 0.245 2.252 -0.521 l0.655 -1.067 m-0.908 1.378 c0.65 -0.626 0.67 -1.661 0.044 -2.311 -0.626 -0.65 -1.661 -0.67 -2.311 -0.044 l-1.034 0.99 c-0.652 0.627 -0.672 1.664 -0.044 2.316 0.627 0.652 1.664 0.672 2.316 0.044 l1.029 -0.996 m-1.225 1.157 c0.741 -0.519 0.92 -1.541 0.401 -2.282 -0.519 -0.741 -1.541 -0.92 -2.282 -0.401 l-1.328 0.926 c-0.742 0.521 -0.922 1.544 -0.402 2.287 0.521 0.742 1.544 0.922 2.287 0.402 l1.324 -0.932 m-1.543 1.062 c0.814 -0.399 1.151 -1.383 0.752 -2.197 -0.399 -0.814 -1.383 -1.151 -2.197 -0.752 l-1.622 0.795 c-0.814 0.399 -1.151 1.383 -0.752 2.197 0.399 0.814 1.383 1.151 2.197 0.752 l1.622 -0.795 m-1.855 0.888 c0.866 -0.27 1.348 -1.191 1.078 -2.056 -0.27 -0.866 -1.191 -1.348 -2.056 -1.078 l-1.913 0.597 c-0.866 0.27 -1.348 1.19 -1.078 2.056 0.27 0.866 1.19 1.348 2.056 1.078 l1.913 -0.597 m-1.993 0.619 c0.878 -0.226 1.407 -1.121 1.181 -1.999 -0.226 -0.878 -1.121 -1.407 -1.999 -1.181 l-2.063 0.533 c-0.877 0.226 -1.405 1.119 -1.179 1.996 0.226 0.877 1.119 1.405 1.996 1.179 l2.064 -0.529 m-2.264 0.567 c0.898 -0.115 1.533 -0.936 1.418 -1.835 -0.115 -0.898 -0.936 -1.533 -1.835 -1.418 l-2.061 0.267 c-0.897 0.115 -1.53 0.935 -1.416 1.832 0.115 0.897 0.935 1.53 1.832 1.416 l2.062 -0.262 m-2.101 0.266 c0.899 -0.093 1.553 -0.897 1.46 -1.797 -0.093 -0.899 -0.897 -1.553 -1.797 -1.46 l-1.915 0.204 c-0.896 0.093 -1.547 0.894 -1.454 1.79 0.093 0.896 0.894 1.547 1.79 1.454 l1.916 -0.192 m-2.014 0.199 c0.9 -0.038 1.598 -0.799 1.56 -1.699 -0.038 -0.9 -0.799 -1.598 -1.699 -1.56 l-1.546 0.08 c-0.892 0.038 -1.584 0.792 -1.546 1.684 0.038 0.892 0.792 1.584 1.684 1.546 l1.547 -0.052 m-1.616 0.053 c0.893 0 1.617 -0.724 1.617 -1.617 0 -0.893 -0.724 -1.617 -1.617 -1.617 l-1.032 0.016 c-0.884 0 -1.601 0.717 -1.601 1.601 0 0.884 0.717 1.601 1.601 1.601 l1.032 0.016 m-2.534 -1.064 c0.305 0.83 1.225 1.255 2.055 0.95 0.83 -0.305 1.255 -1.225 0.95 -2.055 l-0.097 -0.189 c-0.3 -0.817 -1.206 -1.235 -2.023 -0.935 -0.817 0.3 -1.235 1.206 -0.935 2.023 l0.049 0.207 m-0.146 -0.751 c0 0.87 0.705 1.576 1.576 1.576 0.87 0 1.576 -0.705 1.576 -1.576 l-0.033 -0.729 c0 -0.852 -0.691 -1.543 -1.543 -1.543 -0.852 0 -1.543 0.691 -1.543 1.543 l-0.033 0.729 m0.089 -1.142 c-0.228 0.821 0.252 1.672 1.073 1.9 0.821 0.228 1.672 -0.252 1.9 -1.073 l0.195 -0.802 c0.224 -0.807 -0.248 -1.643 -1.055 -1.867 -0.807 -0.224 -1.643 0.248 -1.867 1.055 l-0.247 0.788" />
    <path class="write-round-pen" fill="#FF5768" stroke-width="5" __comx="210.957" __comy="75.437" __timestamp="0x189388a191c" d="M207.587 77.873 c-0.813 -0.189 -1.625 0.317 -1.813 1.129 -0.189 0.813 0.317 1.625 1.129 1.813 l1.976 0.517 c0.843 0.196 1.685 -0.328 1.881 -1.171 0.196 -0.843 -0.328 -1.685 -1.171 -1.881 l-2.001 -0.407 m1.646 0.367 c-0.865 0 -1.567 0.702 -1.567 1.567 0 0.865 0.702 1.567 1.567 1.567 l0.957 0.001 c0.866 0 1.568 -0.702 1.568 -1.568 0 -0.866 -0.702 -1.568 -1.568 -1.568 l-0.957 0.001 m0.174 0.208 c-0.75 0.432 -1.008 1.391 -0.576 2.141 0.432 0.75 1.391 1.008 2.141 0.576 l1.032 -0.594 c0.75 -0.432 1.008 -1.391 0.576 -2.141 -0.432 -0.75 -1.391 -1.008 -2.141 -0.576 l-1.032 0.594 m0.862 -0.482 c-0.688 0.526 -0.819 1.51 -0.294 2.198 0.526 0.688 1.51 0.819 2.198 0.294 l0.957 -0.731 c0.688 -0.526 0.819 -1.51 0.294 -2.198 -0.526 -0.688 -1.51 -0.819 -2.198 -0.294 l-0.957 0.731 m0.815 -0.608 c-0.62 0.604 -0.633 1.597 -0.029 2.217 0.604 0.62 1.597 0.633 2.217 0.029 l0.883 -0.862 c0.62 -0.604 0.633 -1.596 0.029 -2.216 -0.604 -0.62 -1.596 -0.633 -2.216 -0.029 l-0.884 0.86 m0.798 -0.77 c-0.57 0.651 -0.504 1.641 0.148 2.211 0.651 0.57 1.641 0.504 2.211 -0.148 l0.81 -0.927 c0.57 -0.651 0.503 -1.641 -0.148 -2.21 -0.651 -0.57 -1.641 -0.503 -2.21 0.148 l-0.811 0.927 m0.62 -0.654 c-0.419 0.757 -0.146 1.71 0.611 2.129 0.757 0.419 1.71 0.146 2.129 -0.611 l0.514 -0.93 c0.419 -0.756 0.145 -1.709 -0.611 -2.128 -0.756 -0.419 -1.709 -0.145 -2.128 0.611 l-0.515 0.929 m0.446 -0.787 c-0.341 0.795 0.028 1.715 0.822 2.056 0.795 0.341 1.715 -0.028 2.056 -0.822 l0.368 -0.861 c0.34 -0.794 -0.028 -1.714 -0.822 -2.054 -0.794 -0.34 -1.714 0.028 -2.054 0.822 l-0.37 0.86 m0.293 -0.632 c-0.214 0.837 0.291 1.689 1.128 1.903 0.837 0.214 1.689 -0.291 1.903 -1.128 l0.218 -0.864 c0.214 -0.835 -0.29 -1.686 -1.125 -1.899 -0.835 -0.214 -1.686 0.29 -1.899 1.125 l-0.224 0.862 m0.175 -0.475 c0 0.862 0.699 1.561 1.561 1.561 0.862 0 1.561 -0.699 1.561 -1.561 l-0.005 -0.795 c0 -0.859 -0.697 -1.556 -1.556 -1.556 -0.859 0 -1.556 0.697 -1.556 1.556 l-0.005 0.795 m0.005 -0.795 c0 0.859 0.697 1.556 1.556 1.556 0.859 0 1.556 -0.697 1.556 -1.556 l-0.004 -0.663 c0 -0.857 -0.695 -1.552 -1.552 -1.552 -0.857 0 -1.552 0.695 -1.552 1.552 l-0.004 0.663 m0.049 -0.289 c0.206 0.832 1.048 1.339 1.881 1.133 0.832 -0.206 1.339 -1.048 1.133 -1.881 l-0.151 -0.596 c-0.206 -0.83 -1.046 -1.336 -1.876 -1.13 -0.83 0.206 -1.336 1.046 -1.13 1.876 l0.145 0.598 m0.564 0.359 c0.734 0.439 1.685 0.2 2.124 -0.535 0.439 -0.734 0.2 -1.685 -0.535 -2.124 l-0.664 -0.394 c-0.733 -0.438 -1.683 -0.199 -2.121 0.534 -0.438 0.733 -0.199 1.683 0.534 2.121 l0.662 0.398 m-0.505 -0.316 c0.778 0.352 1.695 0.006 2.046 -0.772 0.352 -0.778 0.006 -1.695 -0.772 -2.046 l-0.736 -0.331 c-0.778 -0.352 -1.693 -0.006 -2.045 0.772 -0.352 0.778 -0.006 1.693 0.772 2.045 l0.735 0.334 m-0.437 -0.234 c0.833 0.187 1.659 -0.337 1.846 -1.17 0.187 -0.833 -0.337 -1.659 -1.17 -1.846 l-0.884 -0.198 c-0.833 -0.187 -1.659 0.337 -1.846 1.17 -0.187 0.833 0.337 1.659 1.17 1.846 l0.884 0.198 m-0.546 -0.161 c0.853 0 1.545 -0.692 1.545 -1.545 0 -0.853 -0.692 -1.545 -1.545 -1.545 l-0.957 0 c-0.853 0 -1.545 0.692 -1.545 1.545 0 0.853 0.692 1.545 1.545 1.545 l0.957 0 m-0.957 0 c0.853 0 1.545 -0.692 1.545 -1.545 0 -0.853 -0.692 -1.545 -1.545 -1.545 l-1.032 -0.001 c-0.854 0 -1.546 0.692 -1.546 1.546 0 0.854 0.692 1.546 1.546 1.546 l1.032 -0.001 m-0.561 -0.073 c0.813 -0.26 1.261 -1.13 1.001 -1.944 -0.26 -0.813 -1.13 -1.261 -1.944 -1.001 l-1.032 0.33 c-0.813 0.26 -1.261 1.13 -1.001 1.944 0.26 0.813 1.13 1.261 1.944 1.001 l1.032 -0.33 m-0.511 0.044 c0.655 -0.548 0.742 -1.523 0.194 -2.178 -0.548 -0.655 -1.523 -0.742 -2.178 -0.194 l-1.032 0.863 c-0.655 0.548 -0.742 1.523 -0.194 2.178 0.548 0.655 1.523 0.742 2.178 0.194 l1.032 -0.863 m-0.853 0.687 c0.558 -0.646 0.486 -1.623 -0.161 -2.18 -0.646 -0.558 -1.623 -0.486 -2.18 0.161 l-1.03 1.193 c-0.558 0.647 -0.486 1.623 0.161 2.181 0.647 0.558 1.623 0.486 2.181 -0.161 l1.029 -1.194 m-0.908 1.034 c0.469 -0.714 0.271 -1.673 -0.442 -2.142 -0.714 -0.469 -1.673 -0.271 -2.142 0.442 l-0.96 1.457 c-0.47 0.714 -0.272 1.674 0.442 2.143 0.714 0.47 1.674 0.272 2.143 -0.442 l0.958 -1.458 m-0.886 1.336 c0.402 -0.754 0.117 -1.691 -0.637 -2.094 -0.754 -0.402 -1.691 -0.117 -2.094 0.637 l-0.885 1.655 c-0.403 0.754 -0.117 1.693 0.637 2.095 0.754 0.403 1.693 0.117 2.095 -0.637 l0.883 -1.656 m-0.838 1.565 c0.352 -0.779 0.006 -1.697 -0.774 -2.049 -0.779 -0.352 -1.697 -0.006 -2.049 0.774 l-0.81 1.79 c-0.352 0.78 -0.006 1.699 0.775 2.051 0.78 0.352 1.699 0.006 2.051 -0.775 l0.807 -1.791 m-0.73 1.583 c0.238 -0.823 -0.237 -1.682 -1.059 -1.92 -0.823 -0.238 -1.682 0.237 -1.92 1.059 l-0.52 1.79 c-0.238 0.824 0.237 1.685 1.061 1.923 0.824 0.238 1.685 -0.237 1.923 -1.061 l0.515 -1.791 m-0.476 1.621 c0.144 -0.845 -0.424 -1.648 -1.27 -1.792 -0.845 -0.144 -1.648 0.424 -1.792 1.27 l-0.297 1.724 c-0.144 0.847 0.425 1.651 1.273 1.796 0.847 0.144 1.651 -0.425 1.796 -1.273 l0.29 -1.725 m-0.27 1.54 c0.042 -0.859 -0.619 -1.589 -1.478 -1.631 -0.859 -0.042 -1.589 0.619 -1.631 1.478 l-0.078 1.524 c-0.042 0.86 0.621 1.592 1.481 1.634 0.86 0.042 1.592 -0.621 1.634 -1.481 l0.072 -1.524 m-0.07 1.447 c0 -0.861 -0.698 -1.559 -1.559 -1.559 -0.861 0 -1.559 0.698 -1.559 1.559 l-0.003 1.392 c0 0.863 0.699 1.562 1.562 1.562 0.863 0 1.562 -0.699 1.562 -1.562 l-0.003 -1.392 m-0.01 1.188 c-0.112 -0.856 -0.897 -1.458 -1.752 -1.346 -0.856 0.112 -1.458 0.897 -1.346 1.752 l0.146 1.128 c0.113 0.857 0.898 1.46 1.755 1.348 0.857 -0.113 1.46 -0.898 1.348 -1.755 l-0.151 -1.127 m-0.099 0.462 c-0.48 -0.719 -1.451 -0.913 -2.17 -0.433 -0.719 0.48 -0.913 1.451 -0.433 2.17 l0.662 0.994 c0.48 0.72 1.453 0.914 2.172 0.433 0.72 -0.48 0.914 -1.453 0.433 -2.172 l-0.664 -0.992 m0.41 0.699 c-0.642 -0.579 -1.633 -0.528 -2.212 0.114 -0.579 0.642 -0.528 1.633 0.114 2.212 l0.882 0.799 c0.643 0.58 1.636 0.529 2.216 -0.114 0.58 -0.643 0.529 -1.636 -0.114 -2.216 l-0.886 -0.795 m0.552 0.565 c-0.771 -0.396 -1.717 -0.093 -2.113 0.678 -0.396 0.771 -0.093 1.717 0.678 2.113 l1.031 0.533 c0.772 0.397 1.719 0.093 2.116 -0.679 0.397 -0.772 0.093 -1.719 -0.679 -2.116 l-1.033 -0.529 m0.764 0.42 c-0.832 -0.249 -1.707 0.224 -1.956 1.055 -0.249 0.832 0.224 1.707 1.055 1.956 l1.104 0.331 c0.832 0.249 1.708 -0.224 1.957 -1.056 0.249 -0.832 -0.224 -1.708 -1.056 -1.957 l-1.105 -0.329 m0.743 0.266 c-0.867 -0.049 -1.609 0.615 -1.658 1.482 -0.049 0.867 0.615 1.609 1.482 1.658 l1.178 0.067 c0.867 0.049 1.61 -0.615 1.659 -1.482 0.049 -0.867 -0.615 -1.61 -1.482 -1.659 l-1.178 -0.065 m1.09 0.063 c-0.869 0 -1.573 0.704 -1.573 1.573 0 0.869 0.704 1.573 1.573 1.573 l1.253 0 c0.869 0 1.573 -0.704 1.573 -1.573 0 -0.869 -0.704 -1.573 -1.573 -1.573 l-1.253 0 m0.824 0.059 c-0.836 0.237 -1.322 1.106 -1.085 1.942 0.237 0.836 1.106 1.322 1.942 1.085 l1.401 -0.397 c0.836 -0.236 1.321 -1.106 1.085 -1.941 -0.236 -0.836 -1.106 -1.321 -1.941 -1.085 l-1.401 0.396 m0.948 -0.185 c-0.719 0.487 -0.908 1.464 -0.421 2.184 0.487 0.719 1.464 0.908 2.184 0.421 l1.47 -0.997 c0.719 -0.486 0.907 -1.463 0.421 -2.181 -0.486 -0.719 -1.463 -0.907 -2.181 -0.421 l-1.472 0.994 m1.207 -0.767 c-0.593 0.633 -0.561 1.627 0.071 2.22 0.633 0.593 1.627 0.561 2.22 -0.071 l1.982 -2.126 c0.59 -0.629 0.558 -1.618 -0.071 -2.208 -0.629 -0.59 -1.618 -0.558 -2.208 0.071 l-1.995 2.115 m1.934 -2.046 c-0.552 0.663 -0.463 1.648 0.2 2.2 0.663 0.552 1.648 0.463 2.2 -0.2 l1.533 -1.867 c0.546 -0.656 0.458 -1.63 -0.198 -2.176 -0.656 -0.546 -1.63 -0.458 -2.176 0.198 l-1.56 1.845 m1.505 -1.776 c-0.508 0.686 -0.364 1.653 0.322 2.161 0.686 0.508 1.653 0.364 2.161 -0.322 l1.306 -1.805 c0.5 -0.675 0.358 -1.628 -0.317 -2.127 -0.675 -0.5 -1.628 -0.358 -2.127 0.317 l-1.345 1.776" />
    <path class="write-round-pen" fill="#FF5768" stroke-width="5" __comx="223.341" __comy="75.363" __timestamp="0x189388a1f01" d="M223.265 56.474 c0 0.833 0.676 1.509 1.509 1.509 0.833 0 1.509 -0.676 1.509 -1.509 l0.013 -0.198 c0 -0.84 -0.681 -1.522 -1.522 -1.522 -0.84 0 -1.522 0.681 -1.522 1.522 l0.013 0.198 m3.031 -0.198 c0 -0.84 -0.681 -1.522 -1.522 -1.522 -0.84 0 -1.522 0.681 -1.522 1.522 l-0.07 0.729 c0 0.879 0.712 1.591 1.591 1.591 0.879 0 1.591 -0.712 1.591 -1.591 l-0.07 -0.729 m0.07 0.729 c0 -0.879 -0.712 -1.591 -1.591 -1.591 -0.879 0 -1.591 0.712 -1.591 1.591 l-0.01 1.061 c0 0.884 0.717 1.601 1.601 1.601 0.884 0 1.601 -0.717 1.601 -1.601 l-0.01 -1.061 m0.01 1.061 c0 -0.884 -0.717 -1.601 -1.601 -1.601 -0.884 0 -1.601 0.717 -1.601 1.601 l-0.004 1.59 c0 0.887 0.719 1.605 1.605 1.605 0.887 0 1.605 -0.719 1.605 -1.605 l-0.004 -1.59 m0.004 1.59 c0 -0.887 -0.719 -1.605 -1.605 -1.605 -0.887 0 -1.605 0.719 -1.605 1.605 l-0.002 2.187 c0 0.888 0.72 1.607 1.607 1.607 0.888 0 1.607 -0.72 1.607 -1.607 l-0.002 -2.187 m0.002 2.187 c0 -0.888 -0.72 -1.607 -1.607 -1.607 -0.888 0 -1.607 0.72 -1.607 1.607 l0 3.116 c0 0.888 0.72 1.608 1.608 1.608 0.888 0 1.608 -0.72 1.608 -1.608 l0 -3.116 m-0.01 3.293 c0.098 -0.882 -0.538 -1.677 -1.42 -1.775 -0.882 -0.098 -1.677 0.538 -1.775 1.42 l-0.445 3.979 c-0.098 0.884 0.539 1.68 1.423 1.778 0.884 0.098 1.68 -0.539 1.778 -1.423 l0.439 -3.979 m-0.439 3.975 c0.096 -0.884 -0.543 -1.679 -1.428 -1.775 -0.884 -0.096 -1.679 0.543 -1.775 1.428 l-0.519 4.772 c-0.096 0.885 0.544 1.681 1.429 1.777 0.885 0.096 1.681 -0.544 1.777 -1.429 l0.515 -4.772 m-0.52 4.813 c0.119 -0.883 -0.501 -1.694 -1.383 -1.813 -0.883 -0.119 -1.694 0.501 -1.813 1.383 l-0.59 4.375 c-0.119 0.884 0.502 1.697 1.386 1.816 0.884 0.119 1.697 -0.502 1.816 -1.386 l0.585 -4.376 m-0.584 4.366 c0.113 -0.885 -0.512 -1.694 -1.396 -1.807 -0.885 -0.113 -1.694 0.512 -1.807 1.396 l-0.443 3.446 c-0.113 0.885 0.512 1.695 1.397 1.808 0.885 0.113 1.695 -0.512 1.808 -1.397 l0.441 -3.446 m-0.441 3.445 c0.113 -0.885 -0.513 -1.694 -1.398 -1.807 -0.885 -0.113 -1.694 0.513 -1.807 1.398 l-0.298 2.321 c-0.113 0.886 0.514 1.696 1.4 1.809 0.886 0.113 1.696 -0.514 1.809 -1.4 l0.294 -2.321 m-0.289 2.277 c0.089 -0.889 -0.56 -1.682 -1.449 -1.771 -0.889 -0.089 -1.682 0.56 -1.771 1.449 l-0.146 1.458 c-0.089 0.889 0.56 1.682 1.449 1.771 0.889 0.089 1.682 -0.56 1.771 -1.449 l0.146 -1.458 m-0.147 1.468 c0.095 -0.888 -0.549 -1.685 -1.438 -1.78 -0.888 -0.095 -1.685 0.549 -1.78 1.438 l-0.148 1.392 c-0.095 0.888 0.549 1.685 1.438 1.78 0.888 0.095 1.685 -0.549 1.78 -1.438 l0.148 -1.392 m-0.149 1.4 c0.099 -0.888 -0.54 -1.688 -1.428 -1.787 -0.888 -0.099 -1.688 0.54 -1.787 1.428 l-0.148 1.326 c-0.099 0.888 0.54 1.688 1.428 1.787 0.888 0.099 1.688 -0.54 1.787 -1.428 l0.148 -1.326 m-0.141 1.25 c0.058 -0.892 -0.618 -1.661 -1.51 -1.719 -0.892 -0.058 -1.661 0.618 -1.719 1.51 l-0.07 1.128 c-0.058 0.89 0.617 1.658 1.508 1.716 0.89 0.058 1.658 -0.617 1.716 -1.508 l0.075 -1.127 m-0.072 1.023 c0 -0.892 -0.723 -1.615 -1.615 -1.615 -0.892 0 -1.615 0.723 -1.615 1.615 l0.012 0.663 c0 0.885 0.718 1.603 1.603 1.603 0.885 0 1.603 -0.718 1.603 -1.603 l0.012 -0.663 m-0.012 0.663 c0 -0.885 -0.718 -1.603 -1.603 -1.603 -0.885 0 -1.603 0.718 -1.603 1.603 l0.023 0.264 c0 0.873 0.707 1.58 1.58 1.58 0.873 0 1.58 -0.707 1.58 -1.58 l0.023 -0.264 m-2.056 -1.25 c-0.836 0.25 -1.311 1.13 -1.061 1.966 0.25 0.836 1.13 1.311 1.966 1.061 l0.212 -0.097 c0.819 -0.245 1.284 -1.107 1.04 -1.926 -0.245 -0.819 -1.107 -1.284 -1.926 -1.04 l-0.23 0.035 m-0.483 0.419 c-0.568 0.639 -0.511 1.617 0.127 2.185 0.639 0.568 1.617 0.511 2.185 -0.127 l0.575 -0.676 c0.561 -0.63 0.505 -1.595 -0.125 -2.156 -0.63 -0.561 -1.595 -0.505 -2.156 0.125 l-0.605 0.649 m0.518 -0.542 c-0.501 0.678 -0.358 1.634 0.32 2.136 0.678 0.501 1.634 0.358 2.136 -0.32 l0.577 -0.803 c0.497 -0.672 0.355 -1.62 -0.317 -2.117 -0.672 -0.497 -1.62 -0.355 -2.117 0.317 l-0.598 0.787" />
    <path class="write-round-pen" fill="#FF5768" stroke-width="5" __comx="235.794" __comy="75.363" __timestamp="0x189388a214b" d="M229.385 80.069 c0.766 0.342 1.665 -0.002 2.006 -0.768 0.342 -0.766 -0.002 -1.665 -0.768 -2.006 l-0.142 -0.079 c-0.773 -0.345 -1.68 0.002 -2.025 0.775 -0.345 0.773 0.002 1.68 0.775 2.025 l0.154 0.053 m0.844 -2.94 c-0.821 -0.206 -1.654 0.292 -1.86 1.113 -0.206 0.821 0.292 1.654 1.113 1.86 l1.831 0.501 c0.842 0.212 1.697 -0.3 1.908 -1.142 0.212 -0.842 -0.3 -1.697 -1.142 -1.908 l-1.85 -0.424 m1.467 0.377 c-0.869 0 -1.573 0.704 -1.573 1.573 0 0.869 0.704 1.573 1.573 1.573 l0.811 0.001 c0.869 0 1.574 -0.705 1.574 -1.574 0 -0.869 -0.705 -1.574 -1.574 -1.574 l-0.811 0.001 m0.811 -0.001 c-0.869 0 -1.574 0.705 -1.574 1.574 0 0.869 0.705 1.574 1.574 1.574 l0.959 0 c0.869 0 1.574 -0.705 1.574 -1.574 0 -0.869 -0.705 -1.574 -1.574 -1.574 l-0.959 0 m0.238 0.175 c-0.773 0.398 -1.076 1.348 -0.678 2.12 0.398 0.773 1.348 1.076 2.12 0.678 l1.03 -0.531 c0.773 -0.398 1.076 -1.348 0.678 -2.12 -0.398 -0.773 -1.348 -1.076 -2.12 -0.678 l-1.03 0.531 m0.79 -0.379 c-0.689 0.531 -0.817 1.519 -0.286 2.208 0.531 0.689 1.519 0.817 2.208 0.286 l1.032 -0.795 c0.688 -0.53 0.817 -1.518 0.286 -2.207 -0.53 -0.688 -1.518 -0.817 -2.207 -0.286 l-1.032 0.795 m0.901 -0.682 c-0.626 0.603 -0.645 1.599 -0.043 2.225 0.603 0.626 1.599 0.645 2.225 0.043 l1.031 -0.994 c0.626 -0.602 0.645 -1.598 0.043 -2.223 -0.602 -0.626 -1.598 -0.645 -2.223 -0.043 l-1.033 0.992 m0.872 -0.812 c-0.526 0.691 -0.393 1.677 0.298 2.204 0.691 0.526 1.677 0.393 2.204 -0.298 l0.808 -1.062 c0.526 -0.691 0.393 -1.677 -0.298 -2.203 -0.691 -0.526 -1.677 -0.393 -2.203 0.298 l-0.809 1.061 m0.704 -0.905 c-0.44 0.748 -0.19 1.712 0.558 2.152 0.748 0.44 1.712 0.19 2.152 -0.558 l0.662 -1.128 c0.44 -0.748 0.19 -1.71 -0.558 -2.15 -0.748 -0.44 -1.71 -0.19 -2.15 0.558 l-0.664 1.127 m0.591 -0.987 c-0.362 0.788 -0.017 1.721 0.771 2.083 0.788 0.362 1.721 0.017 2.083 -0.771 l0.516 -1.126 c0.362 -0.788 0.017 -1.719 -0.771 -2.081 -0.788 -0.362 -1.719 -0.017 -2.081 0.771 l-0.518 1.125 m0.417 -0.832 c-0.2 0.843 0.321 1.689 1.164 1.89 0.843 0.2 1.689 -0.321 1.89 -1.164 l0.216 -0.93 c0.2 -0.84 -0.32 -1.684 -1.16 -1.884 -0.84 -0.2 -1.684 0.32 -1.884 1.16 l-0.226 0.928 m0.183 -0.566 c0 0.864 0.7 1.564 1.564 1.564 0.864 0 1.564 -0.7 1.564 -1.564 l-0.004 -0.861 c0 -0.862 -0.698 -1.56 -1.56 -1.56 -0.862 0 -1.56 0.698 -1.56 1.56 l-0.004 0.861 m0.004 -0.861 c0 0.862 0.698 1.56 1.56 1.56 0.862 0 1.56 -0.698 1.56 -1.56 l-0.004 -0.663 c0 -0.859 -0.696 -1.556 -1.556 -1.556 -0.859 0 -1.556 0.696 -1.556 1.556 l-0.004 0.663 m0.155 0.005 c0.369 0.776 1.297 1.106 2.073 0.737 0.776 -0.369 1.106 -1.297 0.737 -2.073 l-0.223 -0.463 c-0.368 -0.774 -1.295 -1.104 -2.069 -0.736 -0.774 0.368 -1.104 1.295 -0.736 2.069 l0.218 0.466 m0.499 0.261 c0.77 0.378 1.7 0.061 2.079 -0.709 0.378 -0.77 0.061 -1.7 -0.709 -2.079 l-0.811 -0.398 c-0.769 -0.378 -1.699 -0.061 -2.077 0.708 -0.378 0.769 -0.061 1.699 0.708 2.077 l0.81 0.399 m-0.465 -0.278 c0.836 0.188 1.666 -0.338 1.854 -1.175 0.188 -0.836 -0.338 -1.666 -1.175 -1.854 l-0.884 -0.198 c-0.836 -0.188 -1.666 0.338 -1.854 1.175 -0.188 0.836 0.338 1.666 1.175 1.854 l0.884 0.198 m-0.651 -0.164 c0.855 0.059 1.596 -0.586 1.655 -1.441 0.059 -0.855 -0.586 -1.596 -1.441 -1.655 l-0.957 -0.066 c-0.855 -0.059 -1.596 0.586 -1.655 1.441 -0.059 0.855 0.586 1.596 1.441 1.655 l0.957 0.066 m-0.85 -0.062 c0.857 0 1.552 -0.695 1.552 -1.552 0 -0.857 -0.695 -1.552 -1.552 -1.552 l-0.959 0 c-0.857 0 -1.552 0.695 -1.552 1.552 0 0.857 0.695 1.552 1.552 1.552 l0.959 0 m-0.852 -0.004 c0.855 -0.059 1.5 -0.8 1.441 -1.655 -0.059 -0.855 -0.8 -1.5 -1.655 -1.441 l-0.957 0.065 c-0.856 0.059 -1.501 0.801 -1.442 1.656 0.059 0.856 0.801 1.501 1.656 1.442 l0.957 -0.067 m-0.076 -0.284 c0.662 -0.546 0.756 -1.524 0.21 -2.186 -0.546 -0.662 -1.524 -0.756 -2.186 -0.21 l-0.884 0.728 c-0.662 0.546 -0.756 1.525 -0.21 2.187 0.546 0.662 1.525 0.756 2.187 0.21 l0.883 -0.73 m-0.61 0.438 c0.501 -0.697 0.342 -1.668 -0.354 -2.169 -0.697 -0.501 -1.668 -0.342 -2.169 0.354 l-0.812 1.126 c-0.502 0.697 -0.343 1.67 0.355 2.171 0.697 0.502 1.67 0.343 2.171 -0.355 l0.809 -1.129 m-0.712 0.975 c0.417 -0.751 0.146 -1.698 -0.605 -2.115 -0.751 -0.417 -1.698 -0.146 -2.115 0.605 l-0.737 1.325 c-0.417 0.752 -0.146 1.7 0.606 2.117 0.752 0.417 1.7 0.146 2.117 -0.606 l0.734 -1.326 m-0.636 1.113 c0.299 -0.806 -0.112 -1.703 -0.918 -2.002 -0.806 -0.299 -1.703 0.112 -2.002 0.918 l-0.591 1.589 c-0.3 0.807 0.112 1.704 0.919 2.004 0.807 0.3 1.704 -0.112 2.004 -0.919 l0.589 -1.59 m-0.54 1.435 c0.214 -0.834 -0.289 -1.683 -1.123 -1.897 -0.834 -0.214 -1.683 0.289 -1.897 1.123 l-0.445 1.724 c-0.214 0.836 0.29 1.686 1.125 1.901 0.836 0.214 1.686 -0.29 1.901 -1.125 l0.439 -1.725 m-0.411 1.59 c0.14 -0.851 -0.437 -1.654 -1.288 -1.794 -0.851 -0.14 -1.654 0.437 -1.794 1.288 l-0.297 1.79 c-0.14 0.853 0.438 1.658 1.291 1.798 0.853 0.14 1.658 -0.438 1.798 -1.291 l0.29 -1.791 m-0.275 1.671 c0.074 -0.861 -0.564 -1.62 -1.426 -1.693 -0.861 -0.074 -1.62 0.564 -1.693 1.426 l-0.151 1.724 c-0.074 0.863 0.565 1.622 1.428 1.696 0.863 0.074 1.622 -0.565 1.696 -1.428 l0.145 -1.724 m-0.14 1.59 c0 -0.866 -0.702 -1.568 -1.568 -1.568 -0.866 0 -1.568 0.702 -1.568 1.568 l-0.003 1.59 c0 0.868 0.703 1.571 1.571 1.571 0.868 0 1.571 -0.703 1.571 -1.571 l-0.003 -1.59 m0.003 1.59 c0 -0.868 -0.703 -1.571 -1.571 -1.571 -0.868 0 -1.571 0.703 -1.571 1.571 l-0.005 1.458 c0 0.87 0.706 1.576 1.576 1.576 0.87 0 1.576 -0.706 1.576 -1.576 l-0.005 -1.458 m-0.041 1.081 c-0.208 -0.845 -1.062 -1.362 -1.907 -1.154 -0.845 0.208 -1.362 1.062 -1.154 1.907 l0.29 1.194 c0.209 0.847 1.065 1.365 1.912 1.157 0.847 -0.209 1.365 -1.065 1.157 -1.912 l-0.298 -1.193 m0.068 0.679 c-0.492 -0.72 -1.476 -0.905 -2.196 -0.413 -0.72 0.492 -0.905 1.476 -0.413 2.196 l0.587 0.865 c0.493 0.722 1.478 0.907 2.2 0.414 0.722 -0.493 0.907 -1.478 0.414 -2.2 l-0.592 -0.862 m0.345 0.579 c-0.65 -0.585 -1.651 -0.533 -2.236 0.117 -0.585 0.65 -0.533 1.651 0.117 2.236 l0.736 0.663 c0.65 0.585 1.651 0.533 2.236 -0.117 0.585 -0.65 0.533 -1.651 -0.117 -2.236 l-0.736 -0.663 m0.46 0.464 c-0.76 -0.433 -1.726 -0.168 -2.159 0.591 -0.433 0.76 -0.168 1.726 0.591 2.159 l0.81 0.463 c0.76 0.433 1.727 0.169 2.161 -0.591 0.433 -0.76 0.169 -1.727 -0.591 -2.161 l-0.811 -0.462 m0.351 0.287 c-0.856 -0.179 -1.696 0.37 -1.875 1.226 -0.179 0.856 0.37 1.696 1.226 1.875 l0.959 0.2 c0.856 0.179 1.696 -0.37 1.875 -1.226 0.179 -0.856 -0.37 -1.696 -1.226 -1.875 l-0.959 -0.2 m0.635 0.167 c-0.875 0 -1.584 0.709 -1.584 1.584 0 0.875 0.709 1.584 1.584 1.584 l0.957 -0.001 c0.875 0 1.583 -0.709 1.583 -1.583 0 -0.875 -0.709 -1.583 -1.583 -1.583 l-0.957 -0.001 m0.957 0.001 c-0.875 0 -1.583 0.709 -1.583 1.583 0 0.875 0.709 1.583 1.583 1.583 l1.105 -0.001 c0.874 0 1.582 -0.708 1.582 -1.582 0 -0.874 -0.708 -1.582 -1.582 -1.582 l-1.105 -0.001 m0.734 0.046 c-0.849 0.205 -1.372 1.06 -1.167 1.909 0.205 0.849 1.06 1.372 1.909 1.167 l1.104 -0.269 c0.848 -0.205 1.37 -1.058 1.165 -1.906 -0.205 -0.848 -1.058 -1.37 -1.906 -1.165 l-1.105 0.264 m0.543 -0.004 c-0.704 0.515 -0.858 1.503 -0.343 2.208 0.515 0.704 1.503 0.858 2.208 0.343 l1.169 -0.873 c0.698 -0.51 0.85 -1.49 0.34 -2.187 -0.51 -0.698 -1.49 -0.85 -2.187 -0.34 l-1.186 0.849 m1.038 -0.727 c-0.63 0.592 -0.661 1.583 -0.069 2.213 0.592 0.63 1.583 0.661 2.213 0.069 l1.609 -1.537 c0.623 -0.585 0.653 -1.564 0.068 -2.187 -0.585 -0.623 -1.564 -0.653 -2.187 -0.068 l-1.634 1.511 m1.548 -1.423 c-0.574 0.633 -0.527 1.611 0.105 2.186 0.633 0.574 1.611 0.527 2.186 -0.105 l1.311 -1.473 c0.567 -0.625 0.52 -1.591 -0.104 -2.158 -0.625 -0.567 -1.591 -0.52 -2.158 0.104 l-1.34 1.447 m1.316 -1.419 c-0.552 0.638 -0.482 1.603 0.157 2.155 0.638 0.552 1.603 0.482 2.155 -0.157 l1.018 -1.205 c0.545 -0.631 0.476 -1.584 -0.155 -2.129 -0.631 -0.545 -1.584 -0.476 -2.129 0.155 l-1.045 1.182" />
    <path class="write-round-pen" fill="#FF5768" stroke-width="5" __comx="246.786" __comy="75.363" __timestamp="0x189388a228b" d="M247.21 72.848 c0 0.829 0.672 1.501 1.501 1.501 0.829 0 1.501 -0.672 1.501 -1.501 l0.021 -0.266 c0 -0.841 -0.681 -1.522 -1.522 -1.522 -0.841 0 -1.522 0.681 -1.522 1.522 l0.021 0.266 m1.28 1.239 c0.832 0.122 1.605 -0.453 1.727 -1.285 0.122 -0.832 -0.453 -1.605 -1.285 -1.727 l-3.157 -0.528 c-0.867 -0.127 -1.672 0.472 -1.8 1.339 -0.127 0.867 0.472 1.672 1.339 1.8 l3.175 0.401 m-1.77 -0.905 c0.588 -0.649 0.539 -1.652 -0.11 -2.24 -0.649 -0.588 -1.652 -0.539 -2.24 0.11 l-0.667 0.727 c-0.59 0.651 -0.541 1.658 0.11 2.248 0.651 0.59 1.658 0.541 2.248 -0.11 l0.659 -0.735 m-0.507 0.539 c0.482 -0.735 0.277 -1.722 -0.458 -2.204 -0.735 -0.482 -1.722 -0.277 -2.204 0.458 l-0.741 1.123 c-0.483 0.737 -0.278 1.726 0.459 2.21 0.737 0.483 1.726 0.278 2.21 -0.459 l0.734 -1.127 m-0.628 0.938 c0.378 -0.796 0.04 -1.748 -0.756 -2.127 -0.796 -0.378 -1.748 -0.04 -2.127 0.756 l-0.664 1.393 c-0.379 0.797 -0.04 1.75 0.757 2.128 0.797 0.379 1.75 0.04 2.128 -0.757 l0.662 -1.395 m-0.621 1.302 c0.328 -0.819 -0.07 -1.749 -0.889 -2.076 -0.819 -0.328 -1.749 0.07 -2.076 0.889 l-0.663 1.656 c-0.328 0.819 0.07 1.749 0.889 2.076 0.819 0.328 1.749 -0.07 2.076 -0.889 l0.663 -1.656 m-0.589 1.42 c0.198 -0.86 -0.339 -1.717 -1.199 -1.914 -0.86 -0.198 -1.717 0.339 -1.914 1.199 l-0.442 1.922 c-0.198 0.86 0.339 1.717 1.199 1.914 0.86 0.198 1.717 -0.339 1.914 -1.199 l0.442 -1.922 m-0.421 1.814 c0.138 -0.871 -0.457 -1.689 -1.328 -1.827 -0.871 -0.138 -1.689 0.457 -1.827 1.328 l-0.294 1.856 c-0.138 0.871 0.457 1.689 1.328 1.827 0.871 0.138 1.689 -0.457 1.827 -1.328 l0.294 -1.856 m-0.28 1.738 c0.073 -0.879 -0.581 -1.651 -1.46 -1.723 -0.879 -0.073 -1.651 0.581 -1.723 1.46 l-0.149 1.79 c-0.073 0.88 0.582 1.652 1.461 1.725 0.88 0.073 1.652 -0.582 1.725 -1.461 l0.147 -1.79 m-0.141 1.659 c0 -0.883 -0.716 -1.599 -1.599 -1.599 -0.883 0 -1.599 0.716 -1.599 1.599 l-0.002 1.524 c0 0.884 0.717 1.601 1.601 1.601 0.884 0 1.601 -0.717 1.601 -1.601 l-0.002 -1.524 m0.002 1.524 c0 -0.884 -0.717 -1.601 -1.601 -1.601 -0.884 0 -1.601 0.717 -1.601 1.601 l-0.003 1.194 c0 0.886 0.718 1.604 1.604 1.604 0.886 0 1.604 -0.718 1.604 -1.604 l-0.003 -1.194 m-0.257 0.319 c-0.483 -0.743 -1.476 -0.953 -2.219 -0.47 -0.743 0.483 -0.953 1.476 -0.47 2.219 l0.517 0.795 c0.483 0.743 1.476 0.953 2.219 0.47 0.743 -0.483 0.953 -1.476 0.47 -2.219 l-0.517 -0.795 m0.183 0.424 c-0.688 -0.558 -1.698 -0.453 -2.256 0.235 -0.558 0.688 -0.453 1.698 0.235 2.256 l0.736 0.597 c0.688 0.558 1.698 0.453 2.256 -0.235 0.558 -0.688 0.453 -1.698 -0.235 -2.256 l-0.736 -0.597 m0.29 0.341 c-0.829 -0.312 -1.754 0.107 -2.066 0.936 -0.312 0.829 0.107 1.754 0.936 2.066 l0.884 0.332 c0.829 0.312 1.754 -0.107 2.066 -0.936 0.312 -0.829 -0.107 -1.754 -0.936 -2.066 l-0.884 -0.333 m0.421 0.233 c-0.884 -0.057 -1.646 0.614 -1.703 1.498 -0.057 0.884 0.614 1.646 1.498 1.703 l1.032 0.064 c0.883 0.057 1.644 -0.613 1.701 -1.496 0.057 -0.883 -0.613 -1.644 -1.496 -1.701 l-1.032 -0.068 m0.929 0.065 c-0.885 0 -1.602 0.717 -1.602 1.602 0 0.885 0.717 1.602 1.602 1.602 l1.178 -0.002 c0.883 0 1.599 -0.716 1.599 -1.599 0 -0.883 -0.716 -1.599 -1.599 -1.599 l-1.178 -0.002 m1.01 0.011 c-0.878 0.093 -1.516 0.88 -1.423 1.758 0.093 0.878 0.88 1.516 1.758 1.423 l1.251 -0.148 c0.87 -0.092 1.5 -0.871 1.408 -1.74 -0.092 -0.87 -0.871 -1.5 -1.74 -1.408 l-1.254 0.116 m0.509 0.164 c-0.715 0.503 -0.886 1.491 -0.383 2.206 0.503 0.715 1.491 0.886 2.206 0.383 l1.681 -1.213 c0.704 -0.496 0.873 -1.469 0.377 -2.173 -0.496 -0.704 -1.469 -0.873 -2.173 -0.377 l-1.708 1.174 m1.594 -1.085 c-0.655 0.559 -0.733 1.543 -0.174 2.198 0.559 0.655 1.543 0.733 2.198 0.174 l1.382 -1.213 c0.644 -0.55 0.721 -1.518 0.171 -2.162 -0.55 -0.644 -1.518 -0.721 -2.162 -0.171 l-1.415 1.174 m1.319 -1.084 c-0.595 0.603 -0.588 1.574 0.015 2.168 0.603 0.595 1.574 0.588 2.168 -0.015 l1.162 -1.209 c0.586 -0.594 0.58 -1.551 -0.014 -2.137 -0.594 -0.586 -1.551 -0.58 -2.137 0.014 l-1.194 1.178" />
    <path class="write-round-pen" fill="#FF5768" stroke-width="5" __comx="262.799" __comy="75.363" __timestamp="0x189388a24ae" d="M258.949 69.443 c0.829 0 1.5 -0.672 1.5 -1.5 0 -0.829 -0.672 -1.5 -1.5 -1.5 l-0.294 -0.001 c-0.829 0 -1.502 0.672 -1.502 1.502 0 0.829 0.672 1.502 1.502 1.502 l0.294 -0.001 m0.27 -0.109 c0.769 -0.311 1.139 -1.187 0.828 -1.955 -0.311 -0.769 -1.187 -1.139 -1.955 -0.828 l-1.498 0.536 c-0.802 0.325 -1.189 1.239 -0.864 2.041 0.325 0.802 1.239 1.189 2.041 0.864 l1.449 -0.658 m-2.037 -2.362 c-0.866 0 -1.567 0.702 -1.567 1.567 0 0.866 0.702 1.567 1.567 1.567 l0.221 0.029 c0.882 0 1.596 -0.715 1.596 -1.596 0 -0.882 -0.715 -1.596 -1.596 -1.596 l-0.221 0.029 m0.221 -0.029 c-0.882 0 -1.596 0.715 -1.596 1.596 0 0.882 0.715 1.596 1.596 1.596 l0.515 0 c0.882 0 1.597 -0.715 1.597 -1.597 0 -0.882 -0.715 -1.597 -1.597 -1.597 l-0.515 0 m0.515 0 c-0.882 0 -1.597 0.715 -1.597 1.597 0 0.882 0.715 1.597 1.597 1.597 l0.738 0.004 c0.884 0 1.6 -0.716 1.6 -1.6 0 -0.884 -0.716 -1.6 -1.6 -1.6 l-0.738 0.004 m0.738 -0.004 c-0.884 0 -1.6 0.716 -1.6 1.6 0 0.884 0.716 1.6 1.6 1.6 l1.03 0.005 c0.886 0 1.605 -0.719 1.605 -1.605 0 -0.886 -0.719 -1.605 -1.605 -1.605 l-1.03 0.005 m1.03 -0.005 c-0.886 0 -1.605 0.719 -1.605 1.605 0 0.886 0.719 1.605 1.605 1.605 l1.18 0.003 c0.888 0 1.608 -0.72 1.608 -1.608 0 -0.888 -0.72 -1.608 -1.608 -1.608 l-1.18 0.003 m0.863 0.029 c-0.87 0.175 -1.434 1.022 -1.259 1.893 0.175 0.87 1.022 1.434 1.893 1.259 l1.326 -0.266 c0.871 -0.175 1.435 -1.023 1.26 -1.894 -0.175 -0.871 -1.023 -1.435 -1.894 -1.26 l-1.325 0.267 m1.204 -0.238 c-0.855 0.242 -1.351 1.131 -1.109 1.986 0.242 0.855 1.131 1.351 1.986 1.109 l1.399 -0.396 c0.855 -0.242 1.351 -1.131 1.109 -1.986 -0.242 -0.855 -1.131 -1.351 -1.986 -1.109 l-1.398 0.396 m1.374 -0.389 c-0.851 0.256 -1.333 1.153 -1.077 2.003 0.256 0.851 1.153 1.333 2.003 1.077 l1.326 -0.399 c0.851 -0.256 1.333 -1.153 1.077 -2.003 -0.256 -0.851 -1.153 -1.333 -2.003 -1.077 l-1.326 0.399 m1.277 -0.383 c-0.842 0.283 -1.295 1.195 -1.013 2.037 0.283 0.842 1.195 1.295 2.037 1.013 l1.18 -0.396 c0.842 -0.283 1.296 -1.195 1.013 -2.037 -0.283 -0.842 -1.195 -1.296 -2.037 -1.013 l-1.18 0.397 m1.111 -0.372 c-0.829 0.321 -1.24 1.253 -0.919 2.081 0.321 0.829 1.253 1.24 2.081 0.919 l1.029 -0.399 c0.828 -0.321 1.24 -1.252 0.919 -2.081 -0.321 -0.828 -1.252 -1.24 -2.081 -0.919 l-1.03 0.398 m0.95 -0.365 c-0.81 0.365 -1.171 1.317 -0.806 2.127 0.365 0.81 1.317 1.171 2.127 0.806 l0.734 -0.341 c0.805 -0.363 1.164 -1.31 0.801 -2.115 -0.363 -0.805 -1.31 -1.164 -2.115 -0.801 l-0.742 0.324 m0.172 0.108 c-0.567 0.677 -0.477 1.686 0.201 2.252 0.677 0.567 1.686 0.477 2.252 -0.201 l0.425 -0.542 c0.559 -0.668 0.47 -1.663 -0.198 -2.222 -0.668 -0.559 -1.663 -0.47 -2.222 0.198 l-0.459 0.514 m0.19 -0.052 c-0.303 0.817 0.113 1.724 0.929 2.028 0.817 0.303 1.724 -0.113 2.028 -0.929 l0.116 -0.411 c0.297 -0.799 -0.11 -1.686 -0.909 -1.983 -0.799 -0.297 -1.686 0.11 -1.983 0.909 l-0.181 0.387 m0.084 0.151 c0 0.852 0.691 1.542 1.542 1.542 0.852 0 1.542 -0.691 1.542 -1.542 l-0.024 -0.33 c0 -0.839 -0.68 -1.519 -1.519 -1.519 -0.839 0 -1.519 0.68 -1.519 1.519 l-0.024 0.33" />
    <path class="write-round-pen" fill="#FF5768" stroke-width="5" __comx="261.017" __comy="75.363" __timestamp="0x189388a2608" d="M263.989 55.877 c0 -0.831 -0.674 -1.505 -1.505 -1.505 -0.831 0 -1.505 0.674 -1.505 1.505 l-0.099 0.531 c0 0.886 0.718 1.604 1.604 1.604 0.886 0 1.604 -0.718 1.604 -1.604 l-0.099 -0.531 m0.099 0.531 c0 -0.886 -0.718 -1.604 -1.604 -1.604 -0.886 0 -1.604 0.718 -1.604 1.604 l-0.011 0.861 c0 0.892 0.723 1.615 1.615 1.615 0.892 0 1.615 -0.723 1.615 -1.615 l-0.011 -0.861 m0.011 0.861 c0 -0.892 -0.723 -1.615 -1.615 -1.615 -0.892 0 -1.615 0.723 -1.615 1.615 l-0.006 1.394 c0 0.895 0.726 1.621 1.621 1.621 0.895 0 1.621 -0.726 1.621 -1.621 l-0.006 -1.394 m0.006 1.394 c0 -0.895 -0.726 -1.621 -1.621 -1.621 -0.895 0 -1.621 0.726 -1.621 1.621 l-0.005 1.788 c0 0.898 0.728 1.625 1.625 1.625 0.898 0 1.625 -0.728 1.625 -1.625 l-0.005 -1.788 m0.005 1.788 c0 -0.898 -0.728 -1.625 -1.625 -1.625 -0.898 0 -1.625 0.728 -1.625 1.625 l-0.005 2.255 c0 0.9 0.73 1.63 1.63 1.63 0.9 0 1.63 -0.73 1.63 -1.63 l-0.005 -2.255 m0.005 2.255 c0 -0.9 -0.73 -1.63 -1.63 -1.63 -0.9 0 -1.63 0.73 -1.63 1.63 l-0.003 3.05 c0 0.902 0.731 1.633 1.633 1.633 0.902 0 1.633 -0.731 1.633 -1.633 l-0.003 -3.05 m-0.002 3.174 c0.069 -0.899 -0.605 -1.684 -1.504 -1.753 -0.899 -0.069 -1.684 0.605 -1.753 1.504 l-0.294 3.845 c-0.069 0.9 0.605 1.684 1.504 1.753 0.9 0.069 1.684 -0.605 1.753 -1.504 l0.293 -3.845 m-0.305 3.949 c0.126 -0.893 -0.496 -1.72 -1.389 -1.846 -0.893 -0.126 -1.72 0.496 -1.846 1.389 l-0.515 3.644 c-0.126 0.893 0.496 1.72 1.389 1.846 0.893 0.126 1.72 -0.496 1.846 -1.389 l0.515 -3.644 m-0.518 3.668 c0.139 -0.891 -0.471 -1.727 -1.362 -1.866 -0.891 -0.139 -1.727 0.471 -1.866 1.362 l-0.519 3.314 c-0.139 0.892 0.471 1.729 1.364 1.868 0.892 0.139 1.729 -0.471 1.868 -1.364 l0.515 -3.314 m-0.522 3.353 c0.16 -0.889 -0.43 -1.739 -1.319 -1.9 -0.889 -0.16 -1.739 0.43 -1.9 1.319 l-0.515 2.852 c-0.16 0.889 0.43 1.74 1.319 1.9 0.889 0.16 1.74 -0.43 1.9 -1.319 l0.515 -2.852 m-0.504 2.786 c0.124 -0.895 -0.501 -1.721 -1.396 -1.845 -0.895 -0.124 -1.721 0.501 -1.845 1.396 l-0.294 2.121 c-0.124 0.895 0.501 1.72 1.395 1.844 0.895 0.124 1.72 -0.501 1.844 -1.395 l0.294 -2.121 m-0.301 2.168 c0.15 -0.891 -0.45 -1.734 -1.341 -1.884 -0.891 -0.15 -1.734 0.45 -1.884 1.341 l-0.37 2.189 c-0.15 0.891 0.45 1.735 1.342 1.886 0.891 0.15 1.735 -0.45 1.886 -1.342 l0.368 -2.189 m-0.353 2.082 c0.091 -0.899 -0.564 -1.702 -1.464 -1.793 -0.899 -0.091 -1.702 0.564 -1.793 1.464 l-0.22 2.187 c-0.091 0.899 0.564 1.701 1.463 1.792 0.899 0.091 1.701 -0.564 1.792 -1.463 l0.222 -2.186 m-0.221 2.174 c0.084 -0.899 -0.577 -1.696 -1.477 -1.78 -0.899 -0.084 -1.696 0.577 -1.78 1.477 l-0.146 1.59 c-0.084 0.898 0.577 1.694 1.475 1.778 0.898 0.084 1.694 -0.577 1.778 -1.475 l0.15 -1.59 m-0.143 1.438 c0 -0.902 -0.731 -1.633 -1.633 -1.633 -0.902 0 -1.633 0.731 -1.633 1.633 l0.01 1.061 c0 0.897 0.727 1.623 1.623 1.623 0.897 0 1.623 -0.727 1.623 -1.623 l0.01 -1.061 m-0.01 1.061 c0 -0.897 -0.727 -1.623 -1.623 -1.623 -0.897 0 -1.623 0.727 -1.623 1.623 l0.018 0.531 c0 0.887 0.719 1.606 1.606 1.606 0.887 0 1.606 -0.719 1.606 -1.606 l0.018 -0.531 m-0.018 0.531 c0 -0.887 -0.719 -1.606 -1.606 -1.606 -0.887 0 -1.606 0.719 -1.606 1.606 l0.025 0.132 c0 0.873 0.708 1.581 1.581 1.581 0.873 0 1.581 -0.708 1.581 -1.581 l0.025 -0.132 m-2.661 -1.045 c-0.65 0.583 -0.704 1.582 -0.121 2.232 0.583 0.65 1.582 0.704 2.232 0.121 l0.198 -0.224 c0.636 -0.57 0.689 -1.548 0.119 -2.184 -0.57 -0.636 -1.548 -0.689 -2.184 -0.119 l-0.244 0.173 m0.035 0.057 c-0.509 0.686 -0.366 1.655 0.32 2.164 0.686 0.509 1.655 0.366 2.164 -0.32 l0.573 -0.808 c0.502 -0.677 0.361 -1.632 -0.316 -2.134 -0.677 -0.502 -1.632 -0.361 -2.134 0.316 l-0.607 0.782 m0.477 -0.574 c-0.387 0.748 -0.094 1.669 0.654 2.056 0.748 0.387 1.669 0.094 2.056 -0.654 l0.501 -1.003 c0.383 -0.741 0.093 -1.652 -0.648 -2.035 -0.741 -0.383 -1.652 -0.093 -2.035 0.648 l-0.529 0.988" />
    <path class="write-round-pen" fill="#FF5768" stroke-width="5" __comx="269.526" __comy="75.363" __timestamp="0x189388a273c" d="M268.255 73.606 c-0.533 0.637 -0.448 1.586 0.189 2.118 0.637 0.533 1.586 0.448 2.118 -0.189 l0.221 -0.264 c0.533 -0.637 0.448 -1.586 -0.189 -2.119 -0.637 -0.533 -1.586 -0.448 -2.119 0.189 l-0.221 0.264 m2.878 0.66 c-0.022 -0.83 -0.713 -1.486 -1.544 -1.463 -0.83 0.022 -1.486 0.713 -1.463 1.544 l-0.028 2.72 c0.024 0.886 0.762 1.586 1.648 1.562 0.886 -0.024 1.586 -0.762 1.562 -1.648 l-0.174 -2.715 m0.175 2.758 c0 -0.887 -0.719 -1.605 -1.605 -1.605 -0.887 0 -1.605 0.719 -1.605 1.605 l-0.006 1.458 c0 0.89 0.722 1.612 1.612 1.612 0.89 0 1.612 -0.722 1.612 -1.612 l-0.006 -1.458 m0.006 1.458 c0 -0.89 -0.722 -1.612 -1.612 -1.612 -0.89 0 -1.612 0.722 -1.612 1.612 l-0.005 1.592 c0 0.893 0.724 1.616 1.616 1.616 0.893 0 1.616 -0.724 1.616 -1.616 l-0.005 -1.592 m0.005 1.592 c0 -0.893 -0.724 -1.616 -1.616 -1.616 -0.893 0 -1.616 0.724 -1.616 1.616 l-0.003 1.59 c0 0.894 0.725 1.619 1.619 1.619 0.894 0 1.619 -0.725 1.619 -1.619 l-0.003 -1.59 m0.003 1.59 c0 -0.894 -0.725 -1.619 -1.619 -1.619 -0.894 0 -1.619 0.725 -1.619 1.619 l-0.001 1.526 c0 0.895 0.725 1.62 1.62 1.62 0.895 0 1.62 -0.725 1.62 -1.62 l-0.001 -1.526 m0.001 1.526 c0 -0.895 -0.725 -1.62 -1.62 -1.62 -0.895 0 -1.62 0.725 -1.62 1.62 l0 1.326 c0 0.895 0.725 1.62 1.62 1.62 0.895 0 1.62 -0.725 1.62 -1.62 l0 -1.326 m0 1.326 c0 -0.895 -0.725 -1.62 -1.62 -1.62 -0.895 0 -1.62 0.725 -1.62 1.62 l0.003 0.993 c0 0.893 0.724 1.617 1.617 1.617 0.893 0 1.617 -0.724 1.617 -1.617 l0.003 -0.993 m-0.003 0.993 c0 -0.893 -0.724 -1.617 -1.617 -1.617 -0.893 0 -1.617 0.724 -1.617 1.617 l0.011 0.663 c0 0.887 0.719 1.606 1.606 1.606 0.887 0 1.606 -0.719 1.606 -1.606 l0.011 -0.663 m-0.011 0.663 c0 -0.887 -0.719 -1.606 -1.606 -1.606 -0.887 0 -1.606 0.719 -1.606 1.606 l0.024 0.066 c0 0.874 0.708 1.582 1.582 1.582 0.874 0 1.582 -0.708 1.582 -1.582 l0.024 -0.066 m-3.188 0.066 c0 0.874 0.708 1.582 1.582 1.582 0.874 0 1.582 -0.708 1.582 -1.582 l-0.066 -0.066 c0 -0.837 -0.679 -1.516 -1.516 -1.516 -0.837 0 -1.516 0.679 -1.516 1.516 l-0.066 0.066" />
    <path class="write-round-pen" fill="#FF5768" stroke-width="5" __comx="273.359" __comy="75.363" __timestamp="0x189388a27f5" d="M272.229 63.106 c-0.62 0.556 -0.672 1.511 -0.116 2.131 0.556 0.62 1.511 0.672 2.131 0.116 l0.235 -0.183 c0.629 -0.564 0.681 -1.531 0.117 -2.16 -0.564 -0.629 -1.531 -0.681 -2.16 -0.117 l-0.207 0.213 m2.758 0.925 c0 -0.845 -0.685 -1.53 -1.53 -1.53 -0.845 0 -1.53 0.685 -1.53 1.53 l-0.084 1.26 c0 0.891 0.722 1.613 1.613 1.613 0.891 0 1.613 -0.722 1.613 -1.613 l-0.084 -1.26 m0.084 1.26 c0 -0.891 -0.722 -1.613 -1.613 -1.613 -0.891 0 -1.613 0.722 -1.613 1.613 l0.025 1.194 c0 0.877 0.711 1.588 1.588 1.588 0.877 0 1.588 -0.711 1.588 -1.588 l0.025 -1.194 m-0.025 1.194 c0 -0.877 -0.711 -1.588 -1.588 -1.588 -0.877 0 -1.588 0.711 -1.588 1.588 l0.041 1.059 c0 0.854 0.692 1.547 1.547 1.547 0.854 0 1.547 -0.692 1.547 -1.547 l0.041 -1.059 m-0.041 1.059 c0 -0.854 -0.692 -1.547 -1.547 -1.547 -0.854 0 -1.547 0.692 -1.547 1.547 l0.035 1.061 c0 0.835 0.677 1.512 1.512 1.512 0.835 0 1.512 -0.677 1.512 -1.512 l0.035 -1.061" />
    <path class="write-round-pen" fill="#FF5768" stroke-width="5" __comx="281.556" __comy="75.363" __timestamp="0x189388a29e3" d="M276.009 79.278 c0 0.829 0.672 1.501 1.501 1.501 0.829 0 1.501 -0.672 1.501 -1.501 l0.002 -0.266 c0 -0.83 -0.673 -1.503 -1.503 -1.503 -0.83 0 -1.503 0.673 -1.503 1.503 l0.002 0.266 m2.997 -0.124 c0.079 -0.826 -0.527 -1.56 -1.354 -1.639 -0.826 -0.079 -1.56 0.527 -1.639 1.354 l-0.283 2.315 c-0.082 0.861 0.549 1.625 1.41 1.707 0.861 0.082 1.625 -0.549 1.707 -1.41 l0.159 -2.327 m-0.151 2.179 c0 -0.865 -0.701 -1.566 -1.566 -1.566 -0.865 0 -1.566 0.701 -1.566 1.566 l-0.001 1.194 c0 0.865 0.701 1.567 1.567 1.567 0.865 0 1.567 -0.701 1.567 -1.567 l-0.001 -1.194 m0.001 1.194 c0 -0.865 -0.701 -1.567 -1.567 -1.567 -0.865 0 -1.567 0.701 -1.567 1.567 l-0.004 1.194 c0 0.867 0.703 1.571 1.571 1.571 0.867 0 1.571 -0.703 1.571 -1.571 l-0.004 -1.194 m0.004 1.194 c0 -0.867 -0.703 -1.571 -1.571 -1.571 -0.867 0 -1.571 0.703 -1.571 1.571 l-0.007 1.125 c0 0.871 0.706 1.578 1.578 1.578 0.871 0 1.578 -0.706 1.578 -1.578 l-0.007 -1.125 m-0.036 0.76 c-0.202 -0.848 -1.052 -1.372 -1.9 -1.17 -0.848 0.202 -1.372 1.052 -1.17 1.9 l0.217 0.93 c0.202 0.85 1.055 1.376 1.905 1.173 0.85 -0.202 1.376 -1.055 1.173 -1.905 l-0.225 -0.928 m0.002 0.417 c-0.485 -0.727 -1.467 -0.924 -2.194 -0.439 -0.727 0.485 -0.924 1.467 -0.439 2.194 l0.44 0.664 c0.485 0.728 1.469 0.925 2.197 0.439 0.728 -0.485 0.925 -1.469 0.439 -2.197 l-0.443 -0.662 m0.009 0.226 c-0.726 -0.488 -1.711 -0.295 -2.198 0.432 -0.488 0.726 -0.295 1.711 0.432 2.198 l0.589 0.397 c0.727 0.488 1.712 0.295 2.2 -0.432 0.488 -0.727 0.295 -1.712 -0.432 -2.2 l-0.59 -0.395 m0.218 0.211 c-0.829 -0.283 -1.729 0.16 -2.012 0.989 -0.283 0.829 0.16 1.729 0.989 2.012 l0.588 0.2 c0.829 0.283 1.729 -0.16 2.012 -0.989 0.283 -0.829 -0.16 -1.729 -0.989 -2.012 l-0.588 -0.2 m0.076 0.116 c-0.876 0 -1.585 0.71 -1.585 1.585 0 0.876 0.71 1.585 1.585 1.585 l0.811 -0.001 c0.875 0 1.584 -0.709 1.584 -1.584 0 -0.875 -0.709 -1.584 -1.584 -1.584 l-0.811 -0.001 m0.811 0.001 c-0.875 0 -1.584 0.709 -1.584 1.584 0 0.875 0.709 1.584 1.584 1.584 l0.811 -0.001 c0.875 0 1.584 -0.709 1.584 -1.584 0 -0.875 -0.709 -1.584 -1.584 -1.584 l-0.811 -0.001 m0.354 0.068 c-0.837 0.252 -1.311 1.136 -1.059 1.973 0.252 0.837 1.136 1.311 1.973 1.059 l0.883 -0.268 c0.836 -0.252 1.31 -1.135 1.058 -1.971 -0.252 -0.836 -1.135 -1.31 -1.971 -1.058 l-0.884 0.265 m0.237 0.117 c-0.626 0.61 -0.639 1.611 -0.029 2.237 0.61 0.626 1.611 0.639 2.237 0.029 l0.884 -0.861 c0.626 -0.609 0.639 -1.611 0.029 -2.236 -0.609 -0.626 -1.611 -0.639 -2.236 -0.029 l-0.884 0.861 m0.731 -0.688 c-0.53 0.694 -0.397 1.687 0.297 2.217 0.694 0.53 1.687 0.397 2.217 -0.297 l0.81 -1.062 c0.53 -0.694 0.397 -1.686 -0.297 -2.216 -0.694 -0.53 -1.686 -0.397 -2.216 0.297 l-0.811 1.061 m0.67 -0.84 c-0.408 0.772 -0.113 1.728 0.659 2.137 0.772 0.408 1.728 0.113 2.137 -0.659 l0.736 -1.392 c0.408 -0.772 0.113 -1.728 -0.659 -2.137 -0.772 -0.408 -1.728 -0.113 -2.137 0.659 l-0.736 1.392 m0.684 -1.283 c-0.348 0.801 0.018 1.732 0.819 2.08 0.801 0.348 1.732 -0.018 2.08 -0.819 l0.663 -1.524 c0.348 -0.801 -0.018 -1.732 -0.819 -2.08 -0.801 -0.348 -1.732 0.018 -2.08 0.819 l-0.663 1.524 m0.603 -1.362 c-0.259 0.834 0.207 1.72 1.041 1.979 0.834 0.259 1.72 -0.207 1.979 -1.041 l0.513 -1.659 c0.259 -0.833 -0.207 -1.717 -1.04 -1.976 -0.833 -0.259 -1.717 0.207 -1.976 1.04 l-0.517 1.658 m0.499 -1.596 c-0.225 0.842 0.276 1.708 1.118 1.932 0.842 0.225 1.708 -0.276 1.932 -1.118 l0.437 -1.657 c0.224 -0.84 -0.275 -1.702 -1.115 -1.927 -0.84 -0.224 -1.702 0.275 -1.927 1.115 l-0.447 1.655 m0.401 -1.401 c-0.084 0.865 0.549 1.635 1.415 1.719 0.865 0.084 1.635 -0.549 1.719 -1.415 l0.146 -1.526 c0.084 -0.864 -0.549 -1.632 -1.413 -1.716 -0.864 -0.084 -1.632 0.549 -1.716 1.413 l-0.15 1.526 m0.143 -1.374 c0 0.868 0.704 1.572 1.572 1.572 0.868 0 1.572 -0.704 1.572 -1.572 l-0.002 -1.392 c0 -0.867 -0.703 -1.57 -1.57 -1.57 -0.867 0 -1.57 0.703 -1.57 1.57 l-0.002 1.392 m0.002 -1.392 c0 0.867 0.703 1.57 1.57 1.57 0.867 0 1.57 -0.703 1.57 -1.57 l0 -1.127 c0 -0.867 -0.703 -1.569 -1.569 -1.569 -0.867 0 -1.569 0.703 -1.569 1.569 l0 1.127 m0.043 -0.764 c0.201 0.843 1.047 1.364 1.89 1.163 0.843 -0.201 1.364 -1.047 1.163 -1.89 l-0.221 -0.927 c-0.201 -0.843 -1.047 -1.364 -1.89 -1.163 -0.843 0.201 -1.364 1.047 -1.163 1.89 l0.221 0.927 m0.201 -0.176 c0.616 0.61 1.609 0.605 2.219 -0.01 0.61 -0.616 0.605 -1.609 -0.01 -2.219 l-0.735 -0.73 c-0.616 -0.61 -1.611 -0.606 -2.221 0.01 -0.61 0.616 -0.606 1.611 0.01 2.221 l0.737 0.728 m-0.362 -0.454 c0.768 0.404 1.717 0.109 2.121 -0.659 0.404 -0.768 0.109 -1.717 -0.659 -2.121 l-0.883 -0.466 c-0.769 -0.404 -1.719 -0.109 -2.124 0.66 -0.404 0.769 -0.109 1.719 0.66 2.124 l0.885 0.463 m-0.471 -0.315 c0.851 0.176 1.682 -0.371 1.858 -1.222 0.176 -0.851 -0.371 -1.682 -1.222 -1.858 l-0.958 -0.2 c-0.852 -0.176 -1.685 0.372 -1.861 1.223 -0.176 0.852 0.372 1.685 1.223 1.861 l0.959 0.196 m-0.641 -0.164 c0.87 0 1.575 -0.705 1.575 -1.575 0 -0.87 -0.705 -1.575 -1.575 -1.575 l-1.03 -0.003 c-0.871 0 -1.578 0.706 -1.578 1.578 0 0.871 0.706 1.578 1.578 1.578 l1.03 -0.003 m-0.732 -0.025 c0.856 -0.164 1.416 -0.991 1.252 -1.847 -0.164 -0.856 -0.991 -1.416 -1.847 -1.252 l-1.032 0.195 c-0.857 0.165 -1.418 0.993 -1.254 1.85 0.165 0.857 0.993 1.418 1.85 1.254 l1.031 -0.201 m-0.231 -0.215 c0.627 -0.607 0.644 -1.607 0.038 -2.235 -0.607 -0.627 -1.607 -0.644 -2.235 -0.038 l-0.959 0.927 c-0.627 0.607 -0.644 1.607 -0.038 2.235 0.607 0.627 1.607 0.644 2.235 0.038 l0.959 -0.927 m-0.834 0.791 c0.552 -0.676 0.452 -1.671 -0.223 -2.224 -0.676 -0.552 -1.671 -0.452 -2.224 0.223 l-1.029 1.26 c-0.552 0.676 -0.452 1.671 0.223 2.223 0.676 0.552 1.671 0.452 2.223 -0.223 l1.03 -1.259 m-0.872 1.027 c0.424 -0.763 0.149 -1.725 -0.614 -2.148 -0.763 -0.424 -1.725 -0.149 -2.148 0.614 l-0.805 1.463 c-0.422 0.76 -0.148 1.717 0.612 2.139 0.76 0.422 1.717 0.148 2.139 -0.612 l0.817 -1.457 m-0.69 1.16 c0.258 -0.83 -0.206 -1.711 -1.035 -1.969 -0.83 -0.258 -1.711 0.206 -1.969 1.035 l-0.5 1.66 c-0.255 0.822 0.204 1.695 1.025 1.95 0.822 0.255 1.695 -0.204 1.95 -1.025 l0.53 -1.651 m-0.481 1.445 c0.141 -0.849 -0.432 -1.651 -1.28 -1.793 -0.849 -0.141 -1.651 0.432 -1.793 1.28 l-0.201 1.329 c-0.14 0.838 0.426 1.63 1.264 1.77 0.838 0.14 1.63 -0.426 1.77 -1.264 l0.24 -1.322 m-0.219 1.07 c0 -0.849 -0.689 -1.538 -1.538 -1.538 -0.849 0 -1.538 0.689 -1.538 1.538 l0.016 0.995 c0 0.84 0.681 1.522 1.522 1.522 0.84 0 1.522 -0.681 1.522 -1.522 l0.016 -0.995" />
    <path class="write-round-pen" fill="#FF5768" stroke-width="5" __comx="299.76" __comy="75.526" __timestamp="0x189388a308f" d="M290.714 73.231 c-0.41 0.721 -0.158 1.637 0.562 2.047 0.721 0.41 1.637 0.158 2.047 -0.562 l0.131 -0.101 c0.427 -0.751 0.165 -1.707 -0.586 -2.134 -0.751 -0.427 -1.707 -0.165 -2.134 0.586 l-0.02 0.164 m2.945 0.61 c0 -0.864 -0.701 -1.565 -1.565 -1.565 -0.864 0 -1.565 0.701 -1.565 1.565 l-0.009 0.198 c0 0.869 0.705 1.574 1.574 1.574 0.869 0 1.574 -0.705 1.574 -1.574 l-0.009 -0.198 m0.009 0.198 c0 -0.869 -0.705 -1.574 -1.574 -1.574 -0.869 0 -1.574 0.705 -1.574 1.574 l-0.008 0.731 c0 0.874 0.708 1.582 1.582 1.582 0.874 0 1.582 -0.708 1.582 -1.582 l-0.008 -0.731 m0.008 0.731 c0 -0.874 -0.708 -1.582 -1.582 -1.582 -0.874 0 -1.582 0.708 -1.582 1.582 l-0.004 1.191 c0 0.876 0.71 1.587 1.587 1.587 0.876 0 1.587 -0.71 1.587 -1.587 l-0.004 -1.191 m0.004 1.191 c0 -0.876 -0.71 -1.587 -1.587 -1.587 -0.876 0 -1.587 0.71 -1.587 1.587 l-0.001 1.658 c0 0.877 0.711 1.588 1.588 1.588 0.877 0 1.588 -0.711 1.588 -1.588 l-0.001 -1.658 m0 1.718 c0.033 -0.876 -0.65 -1.614 -1.527 -1.647 -0.876 -0.033 -1.614 0.65 -1.647 1.527 l-0.076 1.988 c-0.033 0.877 0.651 1.615 1.528 1.648 0.877 0.033 1.615 -0.651 1.648 -1.528 l0.074 -1.988 m-0.08 2.083 c0.086 -0.873 -0.553 -1.651 -1.427 -1.737 -0.873 -0.086 -1.651 0.553 -1.737 1.427 l-0.221 2.255 c-0.086 0.874 0.553 1.651 1.427 1.737 0.874 0.086 1.651 -0.553 1.737 -1.427 l0.221 -2.255 m-0.227 2.312 c0.117 -0.87 -0.494 -1.67 -1.363 -1.787 -0.87 -0.117 -1.67 0.494 -1.787 1.363 l-0.296 2.186 c-0.117 0.871 0.494 1.672 1.365 1.789 0.871 0.117 1.672 -0.494 1.789 -1.365 l0.292 -2.187 m-0.306 2.275 c0.166 -0.863 -0.4 -1.697 -1.263 -1.863 -0.863 -0.166 -1.697 0.4 -1.863 1.263 l-0.371 1.922 c-0.166 0.864 0.4 1.699 1.265 1.865 0.864 0.166 1.699 -0.4 1.865 -1.265 l0.367 -1.923 m-0.353 1.841 c0.121 -0.872 -0.488 -1.676 -1.359 -1.797 -0.872 -0.121 -1.676 0.488 -1.797 1.359 l-0.224 1.592 c-0.121 0.873 0.489 1.679 1.362 1.801 0.873 0.121 1.679 -0.489 1.801 -1.362 l0.218 -1.592 m-0.233 1.681 c0.17 -0.865 -0.394 -1.704 -1.259 -1.874 -0.865 -0.17 -1.704 0.394 -1.874 1.259 l-0.224 1.125 c-0.17 0.867 0.394 1.707 1.261 1.878 0.867 0.17 1.707 -0.394 1.878 -1.261 l0.218 -1.126 m-0.2 1.011 c0.107 -0.877 -0.517 -1.674 -1.394 -1.781 -0.877 -0.107 -1.674 0.517 -1.781 1.394 l-0.076 0.596 c-0.107 0.878 0.518 1.677 1.396 1.785 0.878 0.107 1.677 -0.518 1.785 -1.396 l0.07 -0.597 m-0.115 0.826 c0.233 -0.854 -0.269 -1.735 -1.123 -1.968 -0.854 -0.233 -1.735 0.269 -1.968 1.123 l-0.073 0.266 c-0.233 0.854 0.269 1.735 1.123 1.968 0.854 0.233 1.735 -0.269 1.968 -1.123 l0.073 -0.266 m-3.221 -0.156 c0 0.885 0.717 1.602 1.602 1.602 0.885 0 1.602 -0.717 1.602 -1.602 l-0.012 -0.266 c0 -0.878 -0.712 -1.59 -1.59 -1.59 -0.878 0 -1.59 0.712 -1.59 1.59 l-0.012 0.266 m0.111 -0.818 c-0.304 0.824 0.116 1.738 0.94 2.043 0.824 0.304 1.738 -0.116 2.043 -0.94 l0.286 -0.798 c0.303 -0.819 -0.116 -1.729 -0.935 -2.032 -0.819 -0.303 -1.729 0.116 -2.032 0.935 l-0.302 0.792 m0.34 -0.887 c-0.355 0.798 0.004 1.733 0.802 2.088 0.798 0.355 1.733 -0.004 2.088 -0.802 l0.585 -1.328 c0.354 -0.796 -0.004 -1.728 -0.8 -2.082 -0.796 -0.354 -1.728 0.004 -2.082 0.8 l-0.595 1.324 m0.618 -1.374 c-0.382 0.783 -0.057 1.727 0.726 2.108 0.783 0.382 1.727 0.057 2.108 -0.726 l0.807 -1.659 c0.381 -0.782 0.057 -1.725 -0.725 -2.106 -0.782 -0.381 -1.725 -0.057 -2.106 0.725 l-0.81 1.657 m0.818 -1.674 c-0.39 0.777 -0.077 1.724 0.701 2.114 0.777 0.39 1.724 0.077 2.114 -0.701 l1.026 -2.058 c0.389 -0.774 0.076 -1.716 -0.698 -2.105 -0.774 -0.389 -1.716 -0.076 -2.105 0.698 l-1.038 2.051 m1.049 -2.072 c-0.4 0.768 -0.102 1.715 0.666 2.115 0.768 0.4 1.715 0.102 2.115 -0.666 l1.099 -2.124 c0.398 -0.765 0.101 -1.708 -0.663 -2.106 -0.765 -0.398 -1.708 -0.101 -2.106 0.663 l-1.111 2.117 m1.151 -2.19 c-0.439 0.742 -0.192 1.7 0.55 2.138 0.742 0.439 1.7 0.192 2.138 -0.55 l1.248 -2.123 c0.437 -0.74 0.192 -1.694 -0.548 -2.131 -0.74 -0.437 -1.694 -0.192 -2.131 0.548 l-1.257 2.118 m1.307 -2.197 c-0.481 0.712 -0.293 1.679 0.419 2.16 0.712 0.481 1.679 0.293 2.16 -0.419 l1.249 -1.859 c0.479 -0.71 0.292 -1.675 -0.418 -2.154 -0.71 -0.479 -1.675 -0.292 -2.154 0.418 l-1.256 1.854 m1.314 -1.934 c-0.524 0.678 -0.398 1.653 0.281 2.176 0.678 0.524 1.653 0.398 2.176 -0.281 l1.176 -1.527 c0.523 -0.678 0.397 -1.651 -0.28 -2.174 -0.678 -0.523 -1.651 -0.397 -2.174 0.28 l-1.179 1.525 m1.299 -1.663 c-0.599 0.611 -0.589 1.593 0.022 2.192 0.611 0.599 1.593 0.589 2.192 -0.022 l1.104 -1.128 c0.599 -0.611 0.589 -1.592 -0.022 -2.191 -0.611 -0.599 -1.592 -0.589 -2.191 0.022 l-1.105 1.127 m1.329 -1.316 c-0.703 0.487 -0.879 1.453 -0.391 2.156 0.487 0.703 1.453 0.879 2.156 0.391 l0.956 -0.663 c0.703 -0.487 0.878 -1.452 0.391 -2.156 -0.487 -0.703 -1.452 -0.878 -2.156 -0.391 l-0.957 0.663 m1.317 -0.848 c-0.805 0.288 -1.225 1.175 -0.936 1.981 0.288 0.805 1.175 1.225 1.981 0.936 l0.738 -0.265 c0.805 -0.288 1.224 -1.174 0.936 -1.979 -0.288 -0.805 -1.174 -1.224 -1.979 -0.936 l-0.738 0.263 m1.26 -0.354 c-0.855 0 -1.548 0.693 -1.548 1.548 0 0.855 0.693 1.548 1.548 1.548 l0.663 0 c0.855 0 1.548 -0.693 1.548 -1.548 0 -0.855 -0.693 -1.548 -1.548 -1.548 l-0.663 0 m0.663 0 c-0.855 0 -1.548 0.693 -1.548 1.548 0 0.855 0.693 1.548 1.548 1.548 l0.515 0.004 c0.857 0 1.552 -0.695 1.552 -1.552 0 -0.857 -0.695 -1.552 -1.552 -1.552 l-0.515 0.004 m1.687 0.532 c-0.561 -0.648 -1.541 -0.718 -2.189 -0.157 -0.648 0.561 -0.718 1.541 -0.157 2.189 l0.511 0.602 c0.564 0.651 1.549 0.722 2.2 0.157 0.651 -0.564 0.722 -1.549 0.157 -2.2 l-0.523 -0.592 m0.763 0.965 c-0.358 -0.784 -1.283 -1.129 -2.066 -0.771 -0.784 0.358 -1.129 1.283 -0.771 2.066 l0.506 1.132 c0.36 0.789 1.291 1.136 2.08 0.776 0.789 -0.36 1.136 -1.291 0.776 -2.08 l-0.524 -1.123 m0.625 1.42 c-0.196 -0.844 -1.039 -1.37 -1.884 -1.174 -0.844 0.196 -1.37 1.039 -1.174 1.884 l0.358 1.592 c0.197 0.85 1.047 1.38 1.897 1.182 0.85 -0.197 1.38 -1.047 1.182 -1.897 l-0.38 -1.587 m0.391 1.638 c-0.169 -0.856 -1.001 -1.413 -1.857 -1.244 -0.856 0.169 -1.413 1.001 -1.244 1.857 l0.357 1.858 c0.17 0.862 1.007 1.423 1.869 1.252 0.862 -0.17 1.423 -1.007 1.252 -1.869 l-0.377 -1.854 m0.397 1.987 c-0.097 -0.873 -0.884 -1.502 -1.757 -1.405 -0.873 0.097 -1.502 0.884 -1.405 1.757 l0.213 1.989 c0.098 0.878 0.888 1.51 1.766 1.413 0.878 -0.098 1.51 -0.888 1.413 -1.766 l-0.229 -1.988 m0.229 1.988 c-0.098 -0.878 -0.888 -1.51 -1.766 -1.413 -0.878 0.098 -1.51 0.888 -1.413 1.766 l0.215 1.989 c0.098 0.881 0.892 1.516 1.773 1.418 0.881 -0.098 1.516 -0.892 1.418 -1.773 l-0.227 -1.988 m0.215 1.903 c-0.145 -0.875 -0.971 -1.466 -1.846 -1.322 -0.875 0.145 -1.466 0.971 -1.322 1.846 l0.293 1.791 c0.145 0.876 0.973 1.469 1.849 1.324 0.876 -0.145 1.469 -0.973 1.324 -1.849 l-0.299 -1.79 m0.276 1.676 c-0.208 -0.864 -1.076 -1.395 -1.94 -1.187 -0.864 0.208 -1.395 1.076 -1.187 1.94 l0.366 1.524 c0.208 0.864 1.077 1.396 1.941 1.188 0.864 -0.208 1.396 -1.077 1.188 -1.941 l-0.368 -1.524 m0.266 1.229 c-0.37 -0.808 -1.326 -1.162 -2.134 -0.792 -0.808 0.37 -1.162 1.326 -0.792 2.134 l0.517 1.127 c0.37 0.808 1.326 1.162 2.134 0.792 0.808 -0.37 1.162 -1.326 0.792 -2.134 l-0.517 -1.127 m0.245 0.716 c-0.598 -0.658 -1.616 -0.706 -2.273 -0.108 -0.658 0.598 -0.706 1.616 -0.108 2.273 l0.666 0.726 c0.596 0.656 1.611 0.704 2.266 0.108 0.656 -0.596 0.704 -1.611 0.108 -2.266 l-0.659 -0.732 m-0.174 0.247 c-0.864 -0.196 -1.723 0.346 -1.919 1.211 -0.196 0.864 0.346 1.723 1.211 1.919 l1.183 0.244 c0.852 0.193 1.699 -0.341 1.891 -1.193 0.193 -0.852 -0.341 -1.699 -1.193 -1.891 l-1.172 -0.289 m0.823 0.25 c-0.873 0 -1.581 0.708 -1.581 1.581 0 0.873 0.708 1.581 1.581 1.581 l1.032 -0.042 c0.85 0 1.54 -0.689 1.54 -1.54 0 -0.85 -0.689 -1.54 -1.54 -1.54 l-1.032 -0.042 m1.032 0.042 c-0.85 0 -1.54 0.689 -1.54 1.54 0 0.85 0.689 1.54 1.54 1.54 l0.957 -0.026 c0.836 0 1.514 -0.678 1.514 -1.514 0 -0.836 -0.678 -1.514 -1.514 -1.514 l-0.957 -0.026" />
    <path class="write-round-pen" fill="#FF5768" stroke-width="5" __comx="339.441" __comy="77.425" __timestamp="0x189388a3ae0" d="M344.556 62.531 c0.709 0.436 1.636 0.214 2.072 -0.494 0.436 -0.709 0.214 -1.636 -0.494 -2.072 l-1.581 -1.058 c-0.743 -0.457 -1.716 -0.225 -2.172 0.518 -0.457 0.743 -0.225 1.716 0.518 2.172 l1.658 0.933 m-0.831 -0.699 c0.872 0 1.579 -0.707 1.579 -1.579 0 -0.872 -0.707 -1.579 -1.579 -1.579 l-0.884 -0.009 c-0.877 0 -1.588 0.711 -1.588 1.588 0 0.877 0.711 1.588 1.588 1.588 l0.884 -0.009 m-0.884 0.009 c0.877 0 1.588 -0.711 1.588 -1.588 0 -0.877 -0.711 -1.588 -1.588 -1.588 l-1.032 -0.007 c-0.881 0 -1.595 0.714 -1.595 1.595 0 0.881 0.714 1.595 1.595 1.595 l1.032 -0.007 m-1.032 0.007 c0.881 0 1.595 -0.714 1.595 -1.595 0 -0.881 -0.714 -1.595 -1.595 -1.595 l-1.032 -0.006 c-0.884 0 -1.601 0.717 -1.601 1.601 0 0.884 0.717 1.601 1.601 1.601 l1.032 -0.006 m-0.339 -0.152 c0.797 -0.383 1.133 -1.339 0.75 -2.136 -0.383 -0.797 -1.339 -1.133 -2.136 -0.75 l-1.107 0.527 c-0.799 0.384 -1.136 1.343 -0.752 2.142 0.384 0.799 1.343 1.136 2.142 0.752 l1.103 -0.535 m-0.768 0.319 c0.68 -0.569 0.77 -1.581 0.202 -2.261 -0.569 -0.68 -1.581 -0.77 -2.261 -0.202 l-1.032 0.858 c-0.682 0.57 -0.772 1.585 -0.202 2.267 0.57 0.682 1.585 0.772 2.267 0.202 l1.027 -0.864 m-0.78 0.607 c0.54 -0.706 0.405 -1.717 -0.302 -2.256 -0.706 -0.54 -1.717 -0.405 -2.256 0.302 l-0.813 1.06 c-0.541 0.708 -0.405 1.72 0.302 2.26 0.708 0.541 1.72 0.405 2.26 -0.302 l0.809 -1.063 m-0.648 0.805 c0.398 -0.796 0.075 -1.765 -0.721 -2.163 -0.796 -0.398 -1.765 -0.075 -2.163 0.721 l-0.664 1.325 c-0.399 0.797 -0.075 1.766 0.722 2.165 0.797 0.399 1.766 0.075 2.165 -0.722 l0.662 -1.326 m-0.555 1.054 c0.248 -0.856 -0.244 -1.751 -1.1 -1.999 -0.856 -0.248 -1.751 0.244 -1.999 1.1 l-0.442 1.524 c-0.248 0.856 0.244 1.751 1.1 1.999 0.856 0.248 1.751 -0.244 1.999 -1.1 l0.442 -1.524 m-0.38 1.145 c0.039 -0.89 -0.651 -1.644 -1.542 -1.682 -0.89 -0.039 -1.644 0.651 -1.682 1.542 l-0.074 1.724 c-0.039 0.89 0.651 1.643 1.541 1.682 0.89 0.039 1.643 -0.651 1.682 -1.541 l0.076 -1.724 m-0.074 1.654 c0 -0.891 -0.722 -1.613 -1.613 -1.613 -0.891 0 -1.613 0.722 -1.613 1.613 l0 1.79 c0 0.891 0.722 1.613 1.613 1.613 0.891 0 1.613 -0.722 1.613 -1.613 l0 -1.79 m-0.012 1.593 c-0.109 -0.884 -0.914 -1.512 -1.798 -1.403 -0.884 0.109 -1.512 0.914 -1.403 1.798 l0.222 1.79 c0.109 0.883 0.914 1.511 1.797 1.402 0.883 -0.109 1.511 -0.914 1.402 -1.797 l-0.22 -1.79 m0.088 1.322 c-0.368 -0.811 -1.323 -1.17 -2.134 -0.802 -0.811 0.368 -1.17 1.323 -0.802 2.134 l0.811 1.788 c0.368 0.811 1.323 1.17 2.134 0.802 0.811 -0.368 1.17 -1.323 0.802 -2.134 l-0.811 -1.788 m0.726 1.626 c-0.457 -0.764 -1.447 -1.012 -2.211 -0.555 -0.764 0.457 -1.012 1.447 -0.555 2.211 l1.032 1.724 c0.457 0.763 1.446 1.012 2.21 0.555 0.763 -0.457 1.012 -1.446 0.555 -2.21 l-1.031 -1.725 m0.962 1.619 c-0.515 -0.725 -1.521 -0.896 -2.246 -0.381 -0.725 0.515 -0.896 1.521 -0.381 2.246 l1.178 1.658 c0.515 0.725 1.521 0.896 2.246 0.381 0.725 -0.515 0.896 -1.521 0.381 -2.246 l-1.177 -1.658 m1.129 1.594 c-0.551 -0.699 -1.563 -0.819 -2.262 -0.268 -0.699 0.551 -0.819 1.563 -0.268 2.262 l1.253 1.59 c0.551 0.699 1.564 0.819 2.262 0.268 0.699 -0.551 0.819 -1.564 0.268 -2.262 l-1.253 -1.59 m1.262 1.602 c-0.544 -0.704 -1.556 -0.834 -2.26 -0.29 -0.704 0.544 -0.834 1.556 -0.29 2.26 l1.177 1.525 c0.544 0.705 1.557 0.834 2.262 0.29 0.705 -0.544 0.834 -1.557 0.29 -2.262 l-1.179 -1.523 m1.166 1.508 c-0.553 -0.698 -1.567 -0.815 -2.265 -0.262 -0.698 0.553 -0.815 1.567 -0.262 2.265 l1.105 1.394 c0.553 0.698 1.567 0.815 2.265 0.262 0.698 -0.553 0.815 -1.567 0.262 -2.265 l-1.105 -1.394 m1.147 1.45 c-0.522 -0.721 -1.53 -0.883 -2.251 -0.361 -0.721 0.522 -0.883 1.53 -0.361 2.251 l0.959 1.326 c0.522 0.721 1.53 0.883 2.251 0.361 0.721 -0.522 0.883 -1.53 0.361 -2.251 l-0.959 -1.326 m0.985 1.363 c-0.501 -0.736 -1.504 -0.927 -2.24 -0.426 -0.736 0.501 -0.927 1.504 -0.426 2.24 l0.81 1.192 c0.501 0.736 1.505 0.927 2.241 0.426 0.736 -0.501 0.927 -1.505 0.426 -2.241 l-0.812 -1.191 m0.925 1.386 c-0.394 -0.799 -1.36 -1.128 -2.16 -0.735 -0.799 0.394 -1.128 1.36 -0.735 2.16 l0.588 1.194 c0.394 0.799 1.36 1.128 2.16 0.735 0.799 -0.394 1.128 -1.36 0.735 -2.16 l-0.588 -1.194 m0.63 1.286 c-0.342 -0.822 -1.287 -1.212 -2.109 -0.869 -0.822 0.342 -1.212 1.287 -0.869 2.109 l0.442 1.061 c0.342 0.822 1.287 1.212 2.109 0.869 0.822 -0.342 1.212 -1.287 0.869 -2.109 l-0.442 -1.061 m0.527 1.332 c-0.193 -0.87 -1.055 -1.418 -1.924 -1.225 -0.87 0.193 -1.418 1.055 -1.225 1.924 l0.221 0.995 c0.193 0.87 1.055 1.418 1.924 1.225 0.87 -0.193 1.418 -1.055 1.225 -1.924 l-0.221 -0.995 m0.254 1.215 c-0.072 -0.888 -0.85 -1.55 -1.738 -1.478 -0.888 0.072 -1.55 0.85 -1.478 1.738 l0.073 0.927 c0.072 0.889 0.851 1.552 1.741 1.48 0.889 -0.072 1.552 -0.851 1.48 -1.741 l-0.077 -0.927 m0.083 1.057 c0 -0.892 -0.723 -1.615 -1.615 -1.615 -0.892 0 -1.615 0.723 -1.615 1.615 l-0.001 0.861 c0 0.893 0.724 1.616 1.616 1.616 0.893 0 1.616 -0.724 1.616 -1.616 l-0.001 -0.861 m-0.006 1.013 c0.084 -0.889 -0.569 -1.677 -1.457 -1.761 -0.889 -0.084 -1.677 0.569 -1.761 1.457 l-0.078 0.797 c-0.084 0.89 0.57 1.68 1.46 1.764 0.89 0.084 1.68 -0.57 1.764 -1.46 l0.072 -0.797 m-0.487 1.735 c0.602 -0.662 0.553 -1.686 -0.109 -2.287 -0.662 -0.602 -1.686 -0.553 -2.287 0.109 l-0.664 0.727 c-0.602 0.662 -0.554 1.688 0.109 2.29 0.662 0.602 1.688 0.554 2.29 -0.109 l0.661 -0.73 m-0.983 1.003 c0.753 -0.485 0.97 -1.488 0.486 -2.241 -0.485 -0.753 -1.488 -0.97 -2.241 -0.486 l-1.031 0.661 c-0.754 0.485 -0.972 1.49 -0.486 2.244 0.485 0.754 1.49 0.972 2.244 0.486 l1.028 -0.665 m-1.242 0.781 c0.818 -0.368 1.183 -1.329 0.815 -2.146 -0.368 -0.818 -1.329 -1.183 -2.146 -0.815 l-1.328 0.597 c-0.818 0.368 -1.183 1.329 -0.815 2.147 0.368 0.818 1.329 1.183 2.147 0.815 l1.328 -0.597 m-1.59 0.689 c0.869 -0.223 1.392 -1.107 1.17 -1.976 -0.223 -0.869 -1.107 -1.392 -1.976 -1.17 l-1.547 0.396 c-0.869 0.223 -1.392 1.107 -1.17 1.976 0.223 0.869 1.107 1.392 1.976 1.17 l1.547 -0.396 m-1.717 0.43 c0.887 -0.128 1.503 -0.952 1.374 -1.839 -0.128 -0.887 -0.952 -1.503 -1.839 -1.374 l-1.84 0.269 c-0.886 0.128 -1.5 0.951 -1.372 1.837 0.128 0.886 0.951 1.5 1.837 1.372 l1.841 -0.264 m-2.019 0.28 c0.895 -0.03 1.596 -0.779 1.566 -1.674 -0.03 -0.895 -0.779 -1.596 -1.674 -1.566 l-1.988 0.071 c-0.892 0.03 -1.591 0.777 -1.562 1.669 0.03 0.892 0.777 1.591 1.669 1.562 l1.989 -0.061 m-2.042 0.062 c0.893 0 1.616 -0.724 1.616 -1.616 0 -0.893 -0.724 -1.616 -1.616 -1.616 l-1.843 0.008 c-0.888 0 -1.608 0.72 -1.608 1.608 0 0.888 0.72 1.608 1.608 1.608 l1.843 0.008 m-1.843 -0.008 c0.888 0 1.608 -0.72 1.608 -1.608 0 -0.888 -0.72 -1.608 -1.608 -1.608 l-1.619 0.01 c-0.883 0 -1.598 0.715 -1.598 1.598 0 0.883 0.715 1.598 1.598 1.598 l1.619 0.01 m-2.104 -0.085 c0.841 0.268 1.74 -0.197 2.007 -1.038 0.268 -0.841 -0.197 -1.74 -1.038 -2.007 l-1.256 -0.388 c-0.835 -0.266 -1.728 0.196 -1.994 1.031 -0.266 0.835 0.196 1.728 1.031 1.994 l1.25 0.409 m-2.026 -0.953 c0.535 0.695 1.532 0.824 2.226 0.29 0.695 -0.535 0.824 -1.532 0.29 -2.226 l-0.678 -0.849 c-0.528 -0.687 -1.513 -0.815 -2.2 -0.286 -0.687 0.528 -0.815 1.513 -0.286 2.2 l0.648 0.872 m-0.86 -1.243 c0.324 0.804 1.238 1.192 2.041 0.868 0.804 -0.324 1.192 -1.238 0.868 -2.041 l-0.318 -0.719 c-0.318 -0.79 -1.217 -1.172 -2.007 -0.854 -0.79 0.318 -1.172 1.217 -0.854 2.007 l0.269 0.739 m-0.381 -1.315 c0 0.852 0.69 1.542 1.542 1.542 0.852 0 1.542 -0.69 1.542 -1.542 l-0.022 -0.729 c0 -0.84 -0.681 -1.52 -1.52 -1.52 -0.84 0 -1.52 0.681 -1.52 1.52 l-0.022 0.729" />
    <path class="write-round-pen" fill="#FF5768" stroke-width="5" __comx="357.953" __comy="77.425" __timestamp="0x189388a3cb3" d="M354.184 83.177 c0.836 0 1.514 -0.678 1.514 -1.514 0 -0.836 -0.678 -1.514 -1.514 -1.514 l-0.296 -0.015 c-0.844 0 -1.529 0.684 -1.529 1.529 0 0.844 0.684 1.529 1.529 1.529 l0.296 -0.015 m1.177 -1.106 c0.226 -0.814 -0.251 -1.656 -1.065 -1.882 -0.814 -0.226 -1.656 0.251 -1.882 1.065 l-1.068 3.702 c-0.232 0.835 0.258 1.699 1.092 1.931 0.835 0.232 1.699 -0.258 1.931 -1.092 l0.991 -3.723 m-0.934 3.304 c0 -0.866 -0.702 -1.569 -1.569 -1.569 -0.866 0 -1.569 0.702 -1.569 1.569 l-0.006 1.061 c0 0.869 0.705 1.574 1.574 1.574 0.869 0 1.574 -0.705 1.574 -1.574 l-0.006 -1.061 m-0.092 0.516 c-0.301 -0.816 -1.206 -1.233 -2.022 -0.931 -0.816 0.301 -1.233 1.206 -0.931 2.022 l0.36 0.996 c0.303 0.819 1.212 1.238 2.031 0.936 0.819 -0.303 1.238 -1.212 0.936 -2.031 l-0.374 -0.991 m0.144 0.575 c-0.532 -0.693 -1.525 -0.823 -2.218 -0.291 -0.693 0.532 -0.823 1.525 -0.291 2.218 l0.659 0.866 c0.534 0.695 1.529 0.826 2.224 0.292 0.695 -0.534 0.826 -1.529 0.292 -2.224 l-0.667 -0.86 m0.349 0.549 c-0.706 -0.519 -1.699 -0.368 -2.218 0.337 -0.519 0.706 -0.368 1.699 0.337 2.218 l0.81 0.598 c0.706 0.52 1.7 0.369 2.22 -0.338 0.52 -0.706 0.369 -1.7 -0.338 -2.22 l-0.812 -0.595 m0.607 0.467 c-0.777 -0.407 -1.737 -0.106 -2.143 0.671 -0.407 0.777 -0.106 1.737 0.671 2.143 l0.884 0.462 c0.777 0.407 1.737 0.106 2.143 -0.671 0.407 -0.777 0.106 -1.737 -0.671 -2.143 l-0.884 -0.462 m0.473 0.315 c-0.858 -0.18 -1.7 0.37 -1.88 1.229 -0.18 0.858 0.37 1.7 1.229 1.88 l0.957 0.201 c0.859 0.18 1.7 -0.37 1.88 -1.229 0.18 -0.859 -0.37 -1.7 -1.229 -1.88 l-0.957 -0.2 m0.631 0.166 c-0.877 0 -1.588 0.711 -1.588 1.588 0 0.877 0.711 1.588 1.588 1.588 l1.032 0 c0.877 0 1.588 -0.711 1.588 -1.588 0 -0.877 -0.711 -1.588 -1.588 -1.588 l-1.032 0 m1.032 0 c-0.877 0 -1.588 0.711 -1.588 1.588 0 0.877 0.711 1.588 1.588 1.588 l1.105 0 c0.877 0 1.588 -0.711 1.588 -1.588 0 -0.877 -0.711 -1.588 -1.588 -1.588 l-1.105 0 m0.532 0.107 c-0.818 0.316 -1.225 1.236 -0.909 2.054 0.316 0.818 1.236 1.225 2.054 0.909 l1.031 -0.4 c0.817 -0.316 1.224 -1.234 0.908 -2.052 -0.316 -0.817 -1.234 -1.224 -2.052 -0.908 l-1.032 0.397 m0.5 -0.057 c-0.629 0.61 -0.645 1.614 -0.035 2.243 0.61 0.629 1.614 0.645 2.243 0.035 l0.955 -0.928 c0.629 -0.609 0.644 -1.612 0.035 -2.241 -0.609 -0.629 -1.612 -0.644 -2.241 -0.035 l-0.958 0.926 m0.763 -0.698 c-0.503 0.717 -0.329 1.705 0.387 2.208 0.717 0.503 1.705 0.329 2.208 -0.387 l0.883 -1.26 c0.503 -0.716 0.329 -1.704 -0.387 -2.207 -0.716 -0.503 -1.704 -0.329 -2.207 0.387 l-0.884 1.259 m0.767 -1.064 c-0.395 0.781 -0.082 1.734 0.699 2.129 0.781 0.395 1.734 0.082 2.129 -0.699 l0.735 -1.461 c0.394 -0.779 0.081 -1.73 -0.698 -2.124 -0.779 -0.394 -1.73 -0.081 -2.124 0.698 l-0.741 1.459 m0.637 -1.198 c-0.25 0.837 0.225 1.718 1.062 1.968 0.837 0.25 1.718 -0.225 1.968 -1.062 l0.509 -1.724 c0.249 -0.833 -0.225 -1.711 -1.058 -1.96 -0.833 -0.249 -1.711 0.225 -1.96 1.058 l-0.52 1.72 m0.477 -1.534 c-0.146 0.858 0.431 1.671 1.288 1.817 0.858 0.146 1.671 -0.431 1.817 -1.288 l0.288 -1.725 c0.146 -0.854 -0.429 -1.665 -1.283 -1.811 -0.854 -0.146 -1.665 0.429 -1.811 1.283 l-0.3 1.723 m0.277 -1.46 c0 0.867 0.703 1.569 1.569 1.569 0.867 0 1.569 -0.703 1.569 -1.569 l-0.003 -1.592 c0 -0.865 -0.701 -1.566 -1.566 -1.566 -0.865 0 -1.566 0.701 -1.566 1.566 l-0.003 1.592 m0.003 -1.592 c0 0.865 0.701 1.566 1.566 1.566 0.865 0 1.566 -0.701 1.566 -1.566 l-0.002 -1.458 c0 -0.864 -0.7 -1.565 -1.565 -1.565 -0.864 0 -1.565 0.7 -1.565 1.565 l-0.002 1.458 m0.052 -1.063 c0.218 0.836 1.072 1.337 1.908 1.119 0.836 -0.218 1.337 -1.072 1.119 -1.908 l-0.294 -1.127 c-0.218 -0.836 -1.072 -1.337 -1.908 -1.119 -0.836 0.218 -1.337 1.072 -1.119 1.908 l0.294 1.127 m0.088 -0.443 c0.596 0.625 1.586 0.649 2.212 0.053 0.625 -0.596 0.649 -1.586 0.053 -2.212 l-0.884 -0.927 c-0.596 -0.625 -1.586 -0.649 -2.212 -0.053 -0.625 0.596 -0.649 1.586 -0.053 2.212 l0.884 0.927 m-0.597 -0.69 c0.727 0.467 1.695 0.256 2.162 -0.471 0.467 -0.727 0.256 -1.695 -0.471 -2.162 l-1.031 -0.664 c-0.727 -0.467 -1.696 -0.256 -2.163 0.471 -0.467 0.727 -0.256 1.696 0.471 2.163 l1.032 0.662 m-0.638 -0.48 c0.828 0.249 1.701 -0.22 1.95 -1.048 0.249 -0.828 -0.22 -1.701 -1.048 -1.95 l-1.104 -0.334 c-0.829 -0.249 -1.703 0.22 -1.952 1.049 -0.249 0.829 0.22 1.703 1.049 1.952 l1.105 0.331 m-0.653 -0.265 c0.866 0 1.567 -0.702 1.567 -1.567 0 -0.866 -0.702 -1.567 -1.567 -1.567 l-1.105 -0.002 c-0.867 0 -1.569 0.702 -1.569 1.569 0 0.867 0.702 1.569 1.569 1.569 l1.105 -0.002 m-1.105 0.002 c0.867 0 1.569 -0.702 1.569 -1.569 0 -0.867 -0.702 -1.569 -1.569 -1.569 l-1.105 -0.004 c-0.869 0 -1.573 0.704 -1.573 1.573 0 0.869 0.704 1.573 1.573 1.573 l1.105 -0.004 m-0.15 -0.32 c0.69 -0.527 0.822 -1.514 0.295 -2.204 -0.527 -0.69 -1.514 -0.822 -2.204 -0.295 l-0.958 0.73 c-0.691 0.528 -0.823 1.516 -0.295 2.207 0.528 0.691 1.516 0.823 2.207 0.295 l0.956 -0.733 m-0.685 0.469 c0.545 -0.677 0.438 -1.669 -0.239 -2.214 -0.677 -0.545 -1.669 -0.438 -2.214 0.239 l-0.959 1.191 c-0.545 0.677 -0.438 1.669 0.239 2.214 0.677 0.545 1.669 0.438 2.214 -0.239 l0.959 -1.191 m-0.841 1.023 c0.452 -0.743 0.217 -1.711 -0.526 -2.164 -0.743 -0.452 -1.711 -0.217 -2.164 0.526 l-0.807 1.329 c-0.452 0.742 -0.217 1.71 0.525 2.162 0.742 0.452 1.71 0.217 2.162 -0.525 l0.81 -1.327 m-0.695 1.099 c0.326 -0.805 -0.063 -1.722 -0.868 -2.048 -0.805 -0.326 -1.722 0.063 -2.048 0.868 l-0.584 1.46 c-0.324 0.802 0.062 1.715 0.864 2.039 0.802 0.324 1.715 -0.062 2.039 -0.864 l0.596 -1.455 m-0.489 1.019 c0.084 -0.861 -0.546 -1.627 -1.407 -1.71 -0.861 -0.084 -1.627 0.546 -1.71 1.407 l-0.134 1.525 c-0.083 0.853 0.542 1.612 1.395 1.695 0.853 0.083 1.612 -0.542 1.695 -1.395 l0.162 -1.522 m-0.155 1.372 c0 -0.857 -0.695 -1.552 -1.552 -1.552 -0.857 0 -1.552 0.695 -1.552 1.552 l0.02 1.127 c0 0.846 0.686 1.532 1.532 1.532 0.846 0 1.532 -0.686 1.532 -1.532 l0.02 -1.127 m-0.02 1.127 c0 -0.846 -0.686 -1.532 -1.532 -1.532 -0.846 0 -1.532 0.686 -1.532 1.532 l0.019 0.795 c0 0.836 0.678 1.514 1.514 1.514 0.836 0 1.514 -0.678 1.514 -1.514 l0.019 -0.795" />
    <path class="write-round-pen" fill="#FF5768" stroke-width="5" __comx="374.159" __comy="77.425" __timestamp="0x189388a3e85" d="M371.083 76.844 c-0.099 -0.832 -0.854 -1.426 -1.686 -1.327 -0.832 0.099 -1.426 0.854 -1.327 1.686 l0.128 1.867 c0.105 0.883 0.906 1.514 1.79 1.409 0.883 -0.105 1.514 -0.906 1.409 -1.79 l-0.314 -1.845 m0.316 1.865 c-0.094 -0.885 -0.887 -1.525 -1.772 -1.431 -0.885 0.094 -1.525 0.887 -1.431 1.772 l0.145 1.392 c0.094 0.886 0.889 1.528 1.776 1.434 0.886 -0.094 1.528 -0.889 1.434 -1.776 l-0.151 -1.391 m0.159 1.491 c-0.039 -0.89 -0.793 -1.581 -1.683 -1.541 -0.89 0.039 -1.581 0.793 -1.541 1.683 l0.068 1.658 c0.039 0.893 0.795 1.585 1.688 1.546 0.893 -0.039 1.585 -0.795 1.546 -1.688 l-0.078 -1.658 m0.079 1.729 c0 -0.894 -0.725 -1.619 -1.619 -1.619 -0.894 0 -1.619 0.725 -1.619 1.619 l-0.003 1.856 c0 0.896 0.726 1.622 1.622 1.622 0.896 0 1.622 -0.726 1.622 -1.622 l-0.003 -1.856 m0.003 1.856 c0 -0.896 -0.726 -1.622 -1.622 -1.622 -0.896 0 -1.622 0.726 -1.622 1.622 l-0.003 1.788 c0 0.898 0.728 1.625 1.625 1.625 0.898 0 1.625 -0.728 1.625 -1.625 l-0.003 -1.788 m0.003 1.788 c0 -0.898 -0.728 -1.625 -1.625 -1.625 -0.898 0 -1.625 0.728 -1.625 1.625 l-0.002 1.658 c0 0.899 0.729 1.627 1.627 1.627 0.899 0 1.627 -0.729 1.627 -1.627 l-0.002 -1.658 m0.002 1.658 c0 -0.899 -0.729 -1.627 -1.627 -1.627 -0.899 0 -1.627 0.729 -1.627 1.627 l-0.004 1.326 c0 0.901 0.73 1.631 1.631 1.631 0.901 0 1.631 -0.73 1.631 -1.631 l-0.004 -1.326 m0.004 1.326 c0 -0.901 -0.73 -1.631 -1.631 -1.631 -0.901 0 -1.631 0.73 -1.631 1.631 l-0.004 0.927 c0 0.903 0.732 1.635 1.635 1.635 0.903 0 1.635 -0.732 1.635 -1.635 l-0.004 -0.927 m0.004 0.927 c0 -0.903 -0.732 -1.635 -1.635 -1.635 -0.903 0 -1.635 0.732 -1.635 1.635 l-0.002 0.531 c0 0.904 0.733 1.637 1.637 1.637 0.904 0 1.637 -0.733 1.637 -1.637 l-0.002 -0.531 m-0.097 1.09 c0.309 -0.85 -0.129 -1.789 -0.979 -2.098 -0.85 -0.309 -1.789 0.129 -2.098 0.979 l-0.073 0.2 c-0.309 0.85 0.129 1.789 0.979 2.098 0.85 0.309 1.789 -0.129 2.098 -0.979 l0.073 -0.2 m-1.611 1.278 c0.904 0 1.637 -0.733 1.637 -1.637 0 -0.904 -0.733 -1.637 -1.637 -1.637 l-0.075 0.002 c-0.903 0 -1.635 0.732 -1.635 1.635 0 0.903 0.732 1.635 1.635 1.635 l0.075 0.002 m-0.075 -0.002 c0.903 0 1.635 -0.732 1.635 -1.635 0 -0.903 -0.732 -1.635 -1.635 -1.635 l-0.073 0.003 c-0.901 0 -1.632 0.731 -1.632 1.632 0 0.901 0.731 1.632 1.632 1.632 l0.073 0.003 m-1.678 -1.341 c0.162 0.886 1.012 1.474 1.899 1.312 0.886 -0.162 1.474 -1.012 1.312 -1.899 l-0.078 -0.398 c-0.162 -0.884 -1.009 -1.469 -1.893 -1.308 -0.884 0.162 -1.469 1.009 -1.308 1.893 l0.068 0.399 m-0.089 -0.561 c0.073 0.896 0.857 1.563 1.753 1.49 0.896 -0.073 1.563 -0.857 1.49 -1.753 l-0.08 -0.927 c-0.072 -0.893 -0.855 -1.558 -1.748 -1.486 -0.893 0.072 -1.558 0.855 -1.486 1.748 l0.07 0.927 m-0.076 -1.058 c0 0.896 0.726 1.622 1.622 1.622 0.896 0 1.622 -0.726 1.622 -1.622 l-0.003 -1.326 c0 -0.894 -0.725 -1.618 -1.618 -1.618 -0.894 0 -1.618 0.725 -1.618 1.618 l-0.003 1.326 m0.003 -1.326 c0 0.894 0.725 1.618 1.618 1.618 0.894 0 1.618 -0.725 1.618 -1.618 l0 -1.79 c0 -0.894 -0.725 -1.618 -1.618 -1.618 -0.894 0 -1.618 0.725 -1.618 1.618 l0 1.79 m0 -1.79 c0 0.894 0.725 1.618 1.618 1.618 0.894 0 1.618 -0.725 1.618 -1.618 l-0.001 -2.123 c0 -0.893 -0.724 -1.617 -1.617 -1.617 -0.893 0 -1.617 0.724 -1.617 1.617 l-0.001 2.123 m0.06 -2.556 c-0.239 0.86 0.264 1.752 1.125 1.991 0.86 0.239 1.752 -0.264 1.991 -1.125 l0.589 -2.121 c0.239 -0.86 -0.264 -1.751 -1.124 -1.99 -0.86 -0.239 -1.751 0.264 -1.99 1.124 l-0.591 2.12 m0.638 -2.265 c-0.319 0.834 0.098 1.768 0.932 2.087 0.834 0.319 1.768 -0.098 2.087 -0.932 l0.735 -1.923 c0.319 -0.833 -0.098 -1.767 -0.931 -2.085 -0.833 -0.319 -1.767 0.098 -2.085 0.931 l-0.737 1.922 m0.834 -2.129 c-0.433 0.78 -0.153 1.763 0.627 2.196 0.78 0.433 1.763 0.153 2.196 -0.627 l0.883 -1.59 c0.433 -0.779 0.153 -1.762 -0.626 -2.195 -0.779 -0.433 -1.762 -0.153 -2.195 0.626 l-0.885 1.589 m0.953 -1.702 c-0.495 0.741 -0.296 1.743 0.445 2.239 0.741 0.495 1.743 0.296 2.239 -0.445 l0.886 -1.326 c0.495 -0.741 0.296 -1.743 -0.445 -2.239 -0.741 -0.495 -1.743 -0.296 -2.239 0.445 l-0.886 1.326 m1.058 -1.541 c-0.614 0.646 -0.589 1.667 0.057 2.282 0.646 0.614 1.667 0.589 2.282 -0.057 l0.883 -0.93 c0.614 -0.645 0.588 -1.666 -0.057 -2.28 -0.645 -0.614 -1.666 -0.588 -2.28 0.057 l-0.885 0.929 m1.086 -1.107 c-0.713 0.534 -0.857 1.545 -0.323 2.258 0.534 0.713 1.545 0.857 2.258 0.323 l0.884 -0.663 c0.713 -0.534 0.857 -1.545 0.323 -2.258 -0.534 -0.713 -1.545 -0.857 -2.258 -0.323 l-0.884 0.663 m1.083 -0.79 c-0.783 0.424 -1.074 1.403 -0.65 2.186 0.424 0.783 1.403 1.074 2.186 0.65 l0.735 -0.4 c0.782 -0.424 1.073 -1.402 0.649 -2.184 -0.424 -0.782 -1.402 -1.073 -2.184 -0.649 l-0.736 0.397 m1.085 -0.537 c-0.859 0.231 -1.368 1.116 -1.137 1.975 0.231 0.859 1.116 1.368 1.975 1.137 l0.736 -0.198 c0.859 -0.231 1.368 -1.116 1.137 -1.975 -0.231 -0.859 -1.116 -1.368 -1.975 -1.137 l-0.736 0.198 m1.155 -0.253 c-0.89 0 -1.611 0.721 -1.611 1.611 0 0.89 0.721 1.611 1.611 1.611 l0.663 -0.014 c0.882 0 1.597 -0.715 1.597 -1.597 0 -0.882 -0.715 -1.597 -1.597 -1.597 l-0.663 -0.014 m0.663 0.014 c-0.882 0 -1.597 0.715 -1.597 1.597 0 0.882 0.715 1.597 1.597 1.597 l0.884 -0.024 c0.869 0 1.573 -0.704 1.573 -1.573 0 -0.869 -0.704 -1.573 -1.573 -1.573 l-0.884 -0.024 m1.694 0.249 c-0.744 -0.448 -1.711 -0.207 -2.158 0.537 -0.448 0.744 -0.207 1.711 0.537 2.158 l0.68 0.37 c0.729 0.438 1.675 0.203 2.113 -0.526 0.438 -0.729 0.203 -1.675 -0.526 -2.113 l-0.646 -0.427 m0.882 0.602 c-0.632 -0.569 -1.606 -0.517 -2.174 0.115 -0.569 0.632 -0.517 1.606 0.115 2.174 l0.608 0.51 c0.621 0.559 1.577 0.508 2.136 -0.113 0.559 -0.621 0.508 -1.577 -0.113 -2.136 l-0.572 -0.551" />
    <path class="write-round-pen" fill="#FF5768" stroke-width="5" __comx="389.978" __comy="77.425" __timestamp="0x189388a40de" d="M385.814 72.449 c0.622 -0.547 0.683 -1.495 0.137 -2.117 -0.547 -0.622 -1.495 -0.683 -2.117 -0.137 l-0.08 0.061 c-0.625 0.549 -0.687 1.502 -0.137 2.127 0.549 0.625 1.502 0.687 2.127 0.137 l0.07 -0.071 m-0.729 0.409 c0.811 -0.186 1.319 -0.994 1.133 -1.805 -0.186 -0.811 -0.994 -1.319 -1.805 -1.133 l-0.601 0.075 c-0.844 0.193 -1.372 1.034 -1.179 1.878 0.193 0.844 1.034 1.372 1.878 1.179 l0.574 -0.194 m-0.924 -2.903 c-0.866 0 -1.568 0.702 -1.568 1.568 0 0.866 0.702 1.568 1.568 1.568 l0.073 0.019 c0.876 0 1.587 -0.71 1.587 -1.587 0 -0.876 -0.71 -1.587 -1.587 -1.587 l-0.073 0.019 m0.073 -0.019 c-0.876 0 -1.587 0.71 -1.587 1.587 0 0.876 0.71 1.587 1.587 1.587 l0.442 0.009 c0.881 0 1.596 -0.714 1.596 -1.596 0 -0.881 -0.714 -1.596 -1.596 -1.596 l-0.442 0.009 m0.442 -0.009 c-0.881 0 -1.596 0.714 -1.596 1.596 0 0.881 0.714 1.596 1.596 1.596 l0.663 0.011 c0.887 0 1.606 -0.719 1.606 -1.606 0 -0.887 -0.719 -1.606 -1.606 -1.606 l-0.663 0.011 m0.539 -0.006 c-0.885 0.068 -1.546 0.841 -1.478 1.725 0.068 0.885 0.841 1.546 1.725 1.478 l0.884 -0.06 c0.889 -0.069 1.555 -0.846 1.486 -1.735 -0.069 -0.889 -0.846 -1.555 -1.735 -1.486 l-0.883 0.077 m0.655 -0.043 c-0.87 0.195 -1.418 1.059 -1.223 1.929 0.195 0.87 1.059 1.418 1.929 1.223 l1.181 -0.26 c0.873 -0.195 1.422 -1.062 1.227 -1.935 -0.195 -0.873 -1.062 -1.422 -1.935 -1.227 l-1.179 0.269 m1.141 -0.26 c-0.868 0.216 -1.397 1.095 -1.18 1.963 0.216 0.868 1.095 1.397 1.963 1.18 l1.326 -0.328 c0.87 -0.217 1.399 -1.097 1.182 -1.967 -0.217 -0.87 -1.097 -1.399 -1.967 -1.182 l-1.325 0.333 m1.272 -0.319 c-0.862 0.246 -1.361 1.143 -1.116 2.005 0.246 0.862 1.143 1.361 2.005 1.116 l1.399 -0.398 c0.862 -0.246 1.362 -1.144 1.116 -2.007 -0.246 -0.862 -1.144 -1.362 -2.007 -1.116 l-1.398 0.4 m1.398 -0.4 c-0.862 0.246 -1.362 1.144 -1.116 2.007 0.246 0.862 1.144 1.362 2.007 1.116 l1.399 -0.398 c0.863 -0.246 1.362 -1.144 1.117 -2.007 -0.246 -0.863 -1.144 -1.362 -2.007 -1.117 l-1.398 0.399 m1.451 -0.413 c-0.87 0.217 -1.4 1.098 -1.183 1.968 0.217 0.87 1.098 1.4 1.968 1.183 l1.326 -0.33 c0.87 -0.217 1.4 -1.098 1.183 -1.968 -0.217 -0.87 -1.098 -1.4 -1.968 -1.183 l-1.326 0.33 m1.251 -0.31 c-0.859 0.258 -1.346 1.163 -1.088 2.022 0.258 0.859 1.163 1.346 2.022 1.088 l1.107 -0.333 c0.859 -0.258 1.346 -1.163 1.088 -2.022 -0.258 -0.859 -1.163 -1.346 -2.022 -1.088 l-1.107 0.333 m1.219 -0.362 c-0.875 0.196 -1.425 1.065 -1.229 1.94 0.196 0.875 1.065 1.425 1.94 1.229 l0.883 -0.202 c0.873 -0.196 1.422 -1.062 1.226 -1.935 -0.196 -0.873 -1.062 -1.422 -1.935 -1.226 l-0.885 0.194 m0.884 -0.194 c-0.873 0.196 -1.421 1.063 -1.225 1.935 0.196 0.873 1.063 1.421 1.935 1.225 l0.584 -0.149 c0.863 -0.194 1.406 -1.051 1.212 -1.915 -0.194 -0.863 -1.051 -1.406 -1.915 -1.212 l-0.591 0.115 m0.29 -0.015 c-0.808 0.361 -1.171 1.308 -0.81 2.116 0.361 0.808 1.308 1.171 2.116 0.81 l0.284 -0.158 c0.794 -0.354 1.15 -1.285 0.796 -2.078 -0.354 -0.794 -1.285 -1.15 -2.078 -0.796 l-0.308 0.106 m0.949 -0.242 c-0.869 0 -1.574 0.705 -1.574 1.574 0 0.869 0.705 1.574 1.574 1.574 l0.146 -0.035 c0.85 0 1.539 -0.689 1.539 -1.539 0 -0.85 -0.689 -1.539 -1.539 -1.539 l-0.146 -0.035" />
    <path class="write-round-pen" fill="#FF5768" stroke-width="5" __comx="390.993" __comy="77.425" __timestamp="0x189388a421f" d="M391.281 56.903 c-0.02 -0.841 -0.718 -1.507 -1.56 -1.487 -0.841 0.02 -1.507 0.718 -1.487 1.56 l0.032 6.235 c0.022 0.905 0.773 1.622 1.679 1.601 0.905 -0.022 1.622 -0.773 1.601 -1.679 l-0.264 -6.229 m0.265 6.268 c0 -0.906 -0.734 -1.64 -1.64 -1.64 -0.906 0 -1.64 0.734 -1.64 1.64 l-0.013 4.508 c0 0.913 0.74 1.653 1.653 1.653 0.913 0 1.653 -0.74 1.653 -1.653 l-0.013 -4.508 m0.013 4.508 c0 -0.913 -0.74 -1.653 -1.653 -1.653 -0.913 0 -1.653 0.74 -1.653 1.653 l-0.017 5.102 c0 0.922 0.747 1.669 1.669 1.669 0.922 0 1.669 -0.747 1.669 -1.669 l-0.017 -5.102 m0.017 5.102 c0 -0.922 -0.747 -1.669 -1.669 -1.669 -0.922 0 -1.669 0.747 -1.669 1.669 l-0.01 5.173 c0 0.927 0.752 1.679 1.679 1.679 0.927 0 1.679 -0.752 1.679 -1.679 l-0.01 -5.173 m0.01 5.173 c0 -0.927 -0.752 -1.679 -1.679 -1.679 -0.927 0 -1.679 0.752 -1.679 1.679 l-0.008 4.574 c0 0.932 0.755 1.687 1.687 1.687 0.932 0 1.687 -0.755 1.687 -1.687 l-0.008 -4.574 m0.008 4.574 c0 -0.932 -0.755 -1.687 -1.687 -1.687 -0.932 0 -1.687 0.755 -1.687 1.687 l0 3.314 c0 0.932 0.756 1.688 1.688 1.688 0.932 0 1.688 -0.756 1.688 -1.688 l0 -3.314 m0 3.314 c0 -0.932 -0.756 -1.688 -1.688 -1.688 -0.932 0 -1.688 0.756 -1.688 1.688 l-0.003 2.387 c0 0.934 0.757 1.691 1.691 1.691 0.934 0 1.691 -0.757 1.691 -1.691 l-0.003 -2.387 m0.003 2.387 c0 -0.934 -0.757 -1.691 -1.691 -1.691 -0.934 0 -1.691 0.757 -1.691 1.691 l0 1.524 c0 0.934 0.757 1.691 1.691 1.691 0.934 0 1.691 -0.757 1.691 -1.691 l0 -1.524 m0 1.524 c0 -0.934 -0.757 -1.691 -1.691 -1.691 -0.934 0 -1.691 0.757 -1.691 1.691 l0.005 1.061 c0 0.931 0.755 1.686 1.686 1.686 0.931 0 1.686 -0.755 1.686 -1.686 l0.005 -1.061 m-0.051 0.67 c-0.216 -0.906 -1.125 -1.465 -2.031 -1.249 -0.906 0.216 -1.465 1.125 -1.249 2.031 l0.249 0.92 c0.212 0.891 1.106 1.44 1.997 1.228 0.891 -0.212 1.44 -1.106 1.228 -1.997 l-0.193 -0.934 m0.077 0.605 c-0.394 -0.826 -1.383 -1.177 -2.21 -0.783 -0.826 0.394 -1.177 1.383 -0.783 2.21 l0.475 0.911 c0.385 0.808 1.352 1.151 2.16 0.766 0.808 -0.385 1.151 -1.352 0.766 -2.16 l-0.408 -0.943 m0.294 0.742 c-0.496 -0.745 -1.502 -0.947 -2.247 -0.451 -0.745 0.496 -0.947 1.502 -0.451 2.247 l0.698 0.972 c0.483 0.725 1.463 0.922 2.188 0.439 0.725 -0.483 0.922 -1.463 0.439 -2.188 l-0.628 -1.019 m0.436 0.784 c-0.613 -0.62 -1.612 -0.626 -2.232 -0.013 -0.62 0.613 -0.626 1.612 -0.013 2.232 l0.621 0.566 c0.596 0.603 1.568 0.608 2.171 0.012 0.603 -0.596 0.608 -1.568 0.012 -2.171 l-0.559 -0.627 m0.496 0.566 c-0.629 -0.568 -1.6 -0.518 -2.168 0.112 -0.568 0.629 -0.518 1.6 0.112 2.168 l0.462 0.376 c0.617 0.557 1.568 0.508 2.125 -0.109 0.557 -0.617 0.508 -1.568 -0.109 -2.125 l-0.421 -0.421" />
  </g>
</svg>
